<?xml version="1.0" encoding="utf-8"?>
<!-- Generator: Adobe Illustrator 21.0.0, SVG Export Plug-In . SVG Version: 6.00 Build 0)  -->
<svg version="1.1" id="Livello_1" xmlns="http://www.w3.org/2000/svg" xmlns:xlink="http://www.w3.org/1999/xlink" x="0px" y="0px"
	 viewBox="0 0 358.2 213.3" style="enable-background:new 0 0 358.2 213.3;" xml:space="preserve">
<style type="text/css">
	.st0{fill:#4C4C4C;}
	.st1{fill:#E3CCD2;}
	.st2{fill:#39393A;}
	.st3{fill:#FFFFFF;}
	.st4{fill:#BC444C;}
	.st5{fill:#99543C;stroke:#000000;stroke-width:1.5;stroke-miterlimit:10;}
	.st6{fill:#914530;stroke:#000000;stroke-width:1.5;stroke-miterlimit:10;}
</style>
<ellipse class="st0" cx="179.1" cy="179.5" rx="179.1" ry="33.8"/>
<g>
	<g>
		<path class="st1" d="M55.7,95.2c1.9-2.9,4-5.3,6.4-7.7c-0.9-0.4-1.7-0.7-2.6-1.1c0.3,6.2,1.1,12.3,2.7,18.4c0.3,1.4,2,1.3,2.7,0.4
			c4.1-5.6,5-13.3,7.3-19.6c0.7-2.1,1.5-4.2,2.4-6.2c1.1-2.7,2.2-2.9,5-3.6c4.5-1.1,9.2-1.5,13.8-2.3c1.9-0.3,1.1-3.2-0.8-2.9
			c-5.1,0.9-10.7,1.2-15.7,2.6c-2.5,0.7-3.3,1.3-4.4,3.6c-2.2,4.4-3.7,9.5-5.2,14.3c-1.3,4.4-2.2,8.9-4.9,12.6
			c0.9,0.1,1.8,0.2,2.7,0.4c-1.5-5.8-2.3-11.6-2.5-17.6c-0.1-1.3-1.6-2-2.6-1.1c-2.6,2.5-4.9,5.2-6.9,8.3
			C52,95.3,54.6,96.8,55.7,95.2L55.7,95.2z"/>
	</g>
</g>
<g>
	<g>
		<path class="st1" d="M158.4,69.7c0.1,19.1,2.2,38.1,6,56.8c0.4,1.9,3.3,1.1,2.9-0.8c-3.8-18.5-5.8-37.2-5.9-56
			C161.4,67.8,158.4,67.8,158.4,69.7L158.4,69.7z"/>
	</g>
</g>
<g>
	<g>
		<path class="st1" d="M172.4,88.6c-0.6-6.7-5.4-12.9-12.4-13.4c-6.6-0.5-11.5,6-9.9,12.4c0.8,3.1,2.9,5.7,5.6,7.3
			c4.5,2.7,10.4,1,14.7,3.8c6.2,4,5.7,13.1-0.5,16.6c-6.7,3.8-13.9-1.3-15-8.4c-0.3-1.9-3.2-1.1-2.9,0.8c1,6.6,6.6,12.2,13.5,11.9
			c6.5-0.2,12.4-5.9,12.5-12.5c0-7-5.3-12.1-11.9-12.9c-3.6-0.5-7.4-0.3-10.2-2.9c-2.6-2.3-3.8-5.8-2.4-9.1
			c1.9-4.3,7.1-4.9,10.8-2.5c3.1,2,4.8,5.3,5.2,8.9C169.6,90.6,172.6,90.6,172.4,88.6L172.4,88.6z"/>
	</g>
</g>
<g>
	<g>
		<path class="st1" d="M77.5,86.4c3.7,5.6,7.1,12.2,12.4,16.5c1.5,1.2,3.6-0.9,2.1-2.1c-5.1-4.2-8.4-10.5-12-15.9
			C79,83.3,76.4,84.8,77.5,86.4L77.5,86.4z"/>
	</g>
</g>
<g>
	<g>
		<path class="st1" d="M77.8,105.3c6.6-5.2,13-10.8,19-16.7c1.4-1.3-0.7-3.5-2.1-2.1c-6.1,5.9-12.4,11.5-19,16.7
			C74.2,104.4,76.3,106.5,77.8,105.3L77.8,105.3z"/>
	</g>
</g>
<g>
	<g>
		<path class="st1" d="M231.4,71.4c-1.8,3.7-3.5,7.3-5.3,11c-0.9,1.8-3.6,5.2-3,7.4c0.5,1.9,3.3,2.1,4.8,2.5
			c3.4,0.9,6.8,1.4,10.3,1.7c1.9,0.2,1.9-2.8,0-3c-2.7-0.3-5.4-0.7-8.1-1.3c-0.9-0.2-2.9-0.3-3.5-0.9c-0.8,0-0.9-0.2-0.3-0.5
			c0.6-0.4,0.9-0.9,1.1-1.7c2.5-4.4,4.4-9.2,6.6-13.7C234.9,71.2,232.3,69.7,231.4,71.4L231.4,71.4z"/>
	</g>
</g>
<g>
	<g>
		<path class="st1" d="M234.3,86.6c-0.1,4.5-0.7,8.9-1.6,13.3c-0.4,1.9,2.5,2.7,2.9,0.8c1-4.7,1.6-9.4,1.8-14.1
			C237.4,84.6,234.4,84.6,234.3,86.6L234.3,86.6z"/>
	</g>
</g>
<g>
	<g>
		<path class="st1" d="M244.7,88.3c4.8,0,9.7,0.1,14.5,0.3c1.9,0.1,1.9-2.9,0-3c-4.8-0.2-9.7-0.3-14.5-0.3
			C242.7,85.3,242.7,88.3,244.7,88.3L244.7,88.3z"/>
	</g>
</g>
<g>
	<g>
		<path class="st1" d="M252.3,80.1c-0.3,5.5-0.7,11.1-1.3,16.6c-0.2,1.9,2.8,1.9,3,0c0.6-5.5,1.1-11,1.3-16.6
			C255.3,78.2,252.3,78.2,252.3,80.1L252.3,80.1z"/>
	</g>
</g>
<g>
	<g>
		<path class="st1" d="M273.5,80.4c-2.9,6.6-5.8,13.3-8.7,19.9c-0.5,1,0.1,2.2,1.3,2.3c5,0.2,10,0.5,15.1,0.7c1.9,0.1,1.9-2.9,0-3
			c-5-0.2-10-0.5-15.1-0.7c0.4,0.8,0.9,1.5,1.3,2.3c2.9-6.6,5.8-13.3,8.7-19.9C276.9,80.2,274.3,78.7,273.5,80.4L273.5,80.4z"/>
	</g>
</g>
<g>
	<g>
		<path class="st1" d="M275.8,93.3c0,4.7,0,9.3,0,14c0,1.9,3,1.9,3,0c0-4.7,0-9.3,0-14C278.8,91.4,275.8,91.4,275.8,93.3L275.8,93.3
			z"/>
	</g>
</g>
<rect x="127.4" y="137.5" class="st2" width="136" height="18"/>
<rect x="262.4" y="137.5" class="st2" width="21" height="8"/>
<g>
	<path class="st3" d="M136,79.6c2.9,6.8,9.4,11.6,16.5,13.9c7,2.3,14.6,2.4,22,1.9c-8.8-1.2-16.7-7.9-19.2-16.4"/>
	<g>
		<path class="st4" d="M134.7,80.4c7.2,15.1,24.8,17.4,39.8,16.5c1.6-0.1,2.2-2.7,0.4-2.9c-8.6-1.4-15.4-7.1-18.2-15.3
			c-0.6-1.8-3.5-1-2.9,0.8c3.1,9.2,10.7,15.8,20.3,17.4c0.1-1,0.3-2,0.4-2.9c-13.9,0.8-30.4-0.8-37.2-15
			C136.5,77.1,133.9,78.6,134.7,80.4L134.7,80.4z"/>
	</g>
</g>
<g>
	<path class="st3" d="M136.1,79.9c-11.4,1.1-23.1,0.2-34.2-2.6c-5.8-1.5-11.7-3.7-16.2-7.7c-4.3-3.9-6.9-9.3-8.7-14.8
		c-2.3-7-3.3-14.9-0.3-21.7c4.8-10.8,17.4-15,28-20c8.9-4.2,17.4-9.8,27.2-11.4c11.4-1.8,23.3,2.3,32,9.9s14.3,18.3,16.9,29.6
		c1,4.4,1.6,8.9,1.1,13.4c-1.5,13-13.5,24.1-26.6,24.4"/>
	<g>
		<path class="st4" d="M136.1,78.4c-9.8,0.9-19.5,0.5-29.1-1.5C97.9,75,88.4,72.1,83,64c-5-7.4-8.2-18.5-5.9-27.3
			c2.1-8,9-12.9,16-16.5c6.7-3.4,13.6-6.3,20.2-9.8c8.1-4.2,16.3-8,25.6-7.6c18.2,0.8,32.2,14.9,38.3,31.2c3.4,9.2,5.4,20,0.6,29
			c-4.4,8.3-13,13.9-22.4,14.4c-1.9,0.1-1.9,3.1,0,3c17.6-1,30.1-16.7,28-34C181.1,28,170,9.8,152.3,2.7
			C131.8-5.5,114.2,7,96.1,15.4c-7.3,3.4-15,7.4-19.4,14.5C71.7,38,73,48.1,76,56.7c3.7,10.2,10.3,17.1,20.7,20.6
			c12.5,4.3,26.3,5.3,39.4,4.1C138,81.2,138.1,78.2,136.1,78.4L136.1,78.4z"/>
	</g>
</g>
<g>
	<path class="st3" d="M182.1,97.4c-3.2,12.6-4.7,25.7-4.5,38.7l-0.1,0.4c17.4-0.4,34.8-0.1,52.1,0.9v0.3c2.9-14.1-0.1-29.4-8.2-41.3
		l-0.1,0.6c-1.7,1.3-3.2,2.8-4.4,4.4l-0.4,0.5c-8.2-1.4-16.7-1.5-24.9-0.2c-1.2,0.2-2.7,0.4-3.6-0.5c-0.4-0.4-0.6-0.9-0.9-1.4
		c-0.9-1.6-2.6-2.8-4.4-3.2L182.1,97.4z"/>
	<g>
		<path d="M180.6,97c-1.6,6.5-2.8,13-3.6,19.6c-0.4,3.4-0.7,6.8-0.8,10.2c-0.1,3,0.3,6.4-0.2,9.3c-0.2,0.9,0.4,1.9,1.4,1.9
			c17.4-0.4,34.8-0.1,52.1,0.9c-0.5-0.5-1-1-1.5-1.5c0,0.1,0,0.2,0,0.3c0.2,1.5,2.6,2.2,2.9,0.4c2.8-14.8-0.1-29.8-8.4-42.5
			c-0.7-1-2.5-1-2.7,0.4c-0.2,0.8-2.5,2.6-3.2,3.2c-2.6,2.3-0.1,0.8-1.8,1c-1.8,0.2-4.3-0.5-6.1-0.7c-2.2-0.2-4.5-0.2-6.7-0.2
			c-3.3,0.1-10.1,2-12.8,0.4c-2.4-1.5-3.3-3.6-6.2-4.5c-0.5-0.2-1.1,0-1.5,0.4c-0.2,0.2-0.4,0.4-0.6,0.6c-1.4,1.4,0.8,3.5,2.1,2.1
			c0.8-0.8,3.3,3.7,4.6,4.5c1.4,0.8,2.7,0.5,4.2,0.4c8.2-0.6,15.9-1.1,24.1,0.2c0.5,0.1,1.1,0.1,1.5-0.4c1.5-2,4.8-3.8,5.3-6.2
			c-0.9,0.1-1.8,0.2-2.7,0.4c7.8,11.9,10.7,26.1,8.1,40.1c1,0.1,2,0.3,2.9,0.4c0-0.1,0-0.2,0-0.3c-0.1-0.8-0.6-1.4-1.5-1.5
			c-17.4-1-34.7-1.3-52.1-0.9c0.5,0.6,1,1.3,1.4,1.9c0.9-5.3,0.2-11.2,0.7-16.6c0.7-7.6,2-15.1,3.9-22.5C184,96,181.1,95.2,180.6,97
			z"/>
	</g>
</g>
<g>
	<g>
		<path d="M184.7,113.1c0,0.5,0,1,0,1.4c0,0.8,0.7,1.5,1.5,1.5s1.5-0.7,1.5-1.5c0-0.5,0-1,0-1.4c0-0.8-0.7-1.5-1.5-1.5
			C185.4,111.7,184.7,112.3,184.7,113.1L184.7,113.1z"/>
	</g>
</g>
<g>
	<g>
		<path d="M200.5,113.8c0,0.5,0,1,0,1.4c0,0.8,0.7,1.5,1.5,1.5s1.5-0.7,1.5-1.5c0-0.5,0-1,0-1.4c0-0.8-0.7-1.5-1.5-1.5
			C201.2,112.4,200.5,113,200.5,113.8L200.5,113.8z"/>
	</g>
</g>
<g>
	<g>
		<path d="M194.2,120.1c1.9,0.1,3.9,0.3,5.8,0.2c1-0.1,1-1.6,0-1.5c-2,0.1-3.9,0-5.8-0.2C193.2,118.5,193.2,120.1,194.2,120.1
			L194.2,120.1z"/>
	</g>
</g>
<g>
	<g>
		<path d="M193.3,119.6c-0.2,1.7,1.5,3.3,3.1,3.5c2,0.3,3.3-1.1,4.1-2.7c0.5-0.8-0.8-1.6-1.3-0.8c-0.5,0.9-1.1,1.9-2.3,2
			c-1.1,0-2.3-0.9-2.2-2C194.9,118.6,193.4,118.7,193.3,119.6L193.3,119.6z"/>
	</g>
</g>
<g>
	<path class="st3" d="M115.3,148.5c0.1,3.1-0.2,6.3-0.9,9.3c-0.1,0.5-0.3,1.1-0.8,1.5s-1.1,0.4-1.7,0.4c-4.9,0-9.8,0-14.6,0
		c-0.7,0-1.4,0-2-0.4c-0.4-0.3-0.7-0.8-1-1.3c-3.7-7.8-3.8-16.8-3.7-25.4c0.1-6.4,0.2-12.8,0.4-19.2c0.2-7.6,0.5-15.5,3.5-22.5
		l-0.2-0.1c2.8,1.4,5.1,3.9,6.4,6.7l0.2,0.4c5.1-1.8,10.4-2.6,15.8-2.4c2.9,0.1,5.9,0.6,8.1,2.5l0.1-0.1c1-3.3,3-6.4,5.7-8.6
		l0.6,0.8c2.5,4.4,3.2,9.6,3.9,14.6c1.3,9.4,2.5,18.8,2,28.3s-2.7,19-7.7,27l-0.6,0.4c-3.4,0-6.8,0.1-10.2,0.1
		c-1.6,0-3.6-0.2-4.2-1.7"/>
	<g>
		<path d="M113.8,148.5c0,2.2,0.2,5-0.5,7.1c-0.9,2.7-0.8,2.2-3.2,2.6c-3.2,0.5-7.8,0.4-11,0c-3-0.4-3.6-0.9-4.6-3.8
			c-0.6-1.6-1-3.3-1.3-5c-0.8-4.1-1-8.3-1-12.5c-0.1-7.5,0.2-15,0.4-22.5c0.2-7.9,0.6-15.6,3.5-23.1c0.3-0.7-0.2-1.3-0.7-1.7
			c-0.1,0-0.1-0.1-0.2-0.1c-0.5,0.9-1,1.7-1.5,2.6c2.7,1.6,4.8,3.7,6,6.6c0.2,0.6,1.1,0.9,1.7,0.7c6.7-2.2,16.6-4.4,22.8,0
			c0.5,0.4,1.4,0.2,1.8-0.2c0.8-0.7,1.1-2.6,1.4-3.2c1.1-2.2,2.6-3.9,4.4-5.5c-0.7,0-1.4,0-2.1,0c3.9,5,4.1,14,4.8,20
			c0.9,7.2,1.6,14.4,1.3,21.7c-0.2,6.6-1.3,13.2-3.7,19.3c-0.6,1.7-1.4,3.3-2.2,4.9c-1.1,2-0.8,2.1-2.6,2.5
			c-1.9,0.5-10.2,0.7-11.4-0.9c-1.1-1.5-3.7,0-2.6,1.5c1.6,2.2,3.6,2.4,6.3,2.5c2.8,0,8,0.9,10.4-0.5c2.2-1.3,3.5-5.5,4.4-7.7
			c1.8-4.4,3-9,3.7-13.7c1.4-9.6,0.7-19.2-0.5-28.8c-0.9-7.4-1-17-5.8-23c-0.5-0.7-1.6-0.5-2.1,0c-1.4,1.3-2.7,2.6-3.7,4.2
			c-0.7,1.1-1.3,3.7-2.1,4.5c0.6-0.1,1.2-0.2,1.8-0.2c-6.9-4.9-17.6-2.8-25.1-0.3c0.6,0.2,1.1,0.5,1.7,0.7c-1.4-3.4-4-5.8-7.1-7.7
			c-1.7-1-3.1,1.5-1.5,2.6c0.1,0,0.1,0.1,0.2,0.1c-0.2-0.6-0.5-1.1-0.7-1.7c-3.8,9.7-3.5,20.3-3.8,30.6c-0.2,10.1-1.2,20.9,1.3,30.8
			c0.6,2.5,1.5,6.9,3.8,8.5c2.7,1.9,8,0.7,11.1,0.7c2.5,0,7.2,1,9.3-1c2.5-2.4,2.1-8.7,2-11.7C116.8,146.5,113.8,146.5,113.8,148.5
			L113.8,148.5z"/>
	</g>
</g>
<g>
	<g>
		<path d="M116.4,111.4c0,0.4,0,0.8,0,1.3c0,0.8,0.7,1.5,1.5,1.5s1.5-0.7,1.5-1.5c0-0.4,0-0.8,0-1.3c0-0.8-0.7-1.5-1.5-1.5
			C117.1,110,116.4,110.6,116.4,111.4L116.4,111.4z"/>
	</g>
</g>
<g>
	<g>
		<path d="M130.2,110.8c0,0.4,0,0.8,0,1.3c0,0.8,0.7,1.5,1.5,1.5s1.5-0.7,1.5-1.5c0-0.4,0-0.8,0-1.3c0-0.8-0.7-1.5-1.5-1.5
			S130.2,110,130.2,110.8L130.2,110.8z"/>
	</g>
</g>
<g>
	<g>
		<path d="M83.8,31.9c2.2,6.9,4.7,13.7,7.4,20.4c1.3,3.2,2.6,6.5,3.9,9.7c0.5,1.2,1,3,2.2,3.7c1.2,0.8,2.4,0.4,3.7,0.2
			c3.2-0.6,6.4-0.8,9.6-1.3c7.1-1.2,13.7-4.4,20.9-4.8c1.4-0.1,1.4-2.3,0-2.2c-10.1,0.6-19.4,5.2-29.6,5.8c-2.5,0.2-3.4-0.1-4.7-2.1
			c-0.9-1.4-1.5-3.6-2.1-5.1c-1.1-2.6-2.1-5.3-3.2-7.9c-2.2-5.6-4.2-11.2-6-16.9C85.5,29.9,83.4,30.5,83.8,31.9L83.8,31.9z"/>
	</g>
</g>
<g>
	<g>
		<path d="M85.3,32.8c9.4-2.8,18.8-5.3,28.8-5.3c1.4,0,1.5-2.2,0-2.2c-10.1,0-19.7,2.5-29.4,5.4C83.3,31.1,83.9,33.3,85.3,32.8
			L85.3,32.8z"/>
	</g>
</g>
<g>
	<g>
		<path d="M113.3,27c7.3,9.5,12,21.4,17.5,31.9c0.7,1.3,2.6,0.1,1.9-1.1c-5.5-10.6-10.2-22.5-17.5-31.9
			C114.4,24.7,112.4,25.8,113.3,27L113.3,27z"/>
	</g>
</g>
<g>
	<g>
		<path d="M115.2,27.4c6.8-5.8,17.6-8.1,25.9-11.2c1.3-0.5,0.8-2.7-0.6-2.2c-8.8,3.3-19.6,5.6-26.9,11.8
			C112.5,26.7,114.1,28.3,115.2,27.4L115.2,27.4z"/>
	</g>
</g>
<g>
	<g>
		<path d="M140.6,16.1c5.7,1.4,9.5,9.5,12.1,14.3c2.8,5.3,5.2,10.8,7.5,16.4c0.5,1.3,2.7,0.7,2.2-0.6c-2.8-6.8-5.7-13.6-9.4-20
			c-2.7-4.6-6.2-10.9-11.7-12.3C139.8,13.6,139.2,15.8,140.6,16.1L140.6,16.1z"/>
	</g>
</g>
<g>
	<g>
		<path d="M131.9,59.3c8.8-5,18.6-11.4,28.7-13.1c1.4-0.2,0.8-2.4-0.6-2.2c-10.3,1.8-20.2,8.3-29.2,13.4
			C129.5,58.1,130.6,60,131.9,59.3L131.9,59.3z"/>
	</g>
</g>
<g>
	<g>
		<path d="M132.2,60.5c5.8-1.8,11.4-4,16.8-6.7c3-1.5,5.8-2.7,9-3.5c1.9-0.5,3-0.9,4.4-2.3c1-1-0.6-2.6-1.6-1.6
			c-1.8,1.9-4.7,1.9-7,2.7c-2,0.7-4,1.8-5.9,2.8c-5.3,2.6-10.7,4.7-16.3,6.4C130.2,58.8,130.8,61,132.2,60.5L132.2,60.5z"/>
	</g>
</g>
<g>
	<g>
		<path d="M96.4,65.5c-0.3,5.6,7.4,3.5,10.7,2.8c8.3-2,16.1-5.9,24.3-8.3c1.4-0.4,0.8-2.6-0.6-2.2c-5.2,1.5-10.2,3.2-15.2,5.2
			c-1.9,0.7-17.2,6.4-17,2.5C98.8,64.1,96.5,64.1,96.4,65.5L96.4,65.5z"/>
	</g>
</g>
<g>
	<g>
		<path d="M253,118.2c8.3,2.9,12.1,11,13.2,19.2c0.2,1.9,3.3,1.9,3,0c-1.3-9.6-5.7-18.7-15.4-22C252,114.6,251.2,117.5,253,118.2
			L253,118.2z"/>
	</g>
</g>
<rect x="65.4" y="147.5" class="st5" width="42" height="22"/>
<rect x="65.4" y="147.5" class="st5" width="42" height="7"/>
<rect x="83.4" y="152.5" class="st6" width="7" height="6"/>
<g>
	<g>
		<path d="M82.5,146.7c0.2-2,1.3-4.2,3.5-4.4c2.5-0.2,2.9,2.2,2.8,4.2c0,1.9,3,1.9,3,0c0.1-3.7-1.7-7.3-5.8-7.2
			c-4,0.1-6.2,3.8-6.5,7.4C79.3,148.6,82.3,148.6,82.5,146.7L82.5,146.7z"/>
	</g>
</g>
<g>
	<path class="st3" d="M90.8,119.3c-4.8,2.8-9.8,5.7-13.6,9.8c-0.2,0.2-0.4,0.4-0.4,0.7s0.1,0.6,0.3,0.9c1,1.7,2,3.4,3,5.1
		c1.3,2.2,2.9,4.7,5.4,5.1c0.8,0.1,1.7,0,2.3-0.5c0.6-0.5,0.8-1.2,1-1.9c0.9-3.7-0.2-7.9-2.8-10.6c0.9-0.1,1.8-0.2,2.7-0.4
		L90.8,119.3z"/>
	<g>
		<path d="M90,118c-4.3,2.5-11.4,5.8-14.2,10.3c-1,1.7-0.3,2.8,0.6,4.4c1.4,2.5,2.7,5.3,4.7,7.3c2.3,2.4,6.6,3.7,8.6,0.1
			c2.3-4.3,0-10-2.8-13.3c-0.4,0.9-0.7,1.7-1.1,2.6c0.9-0.1,1.8-0.2,2.7-0.4c0.7-0.1,1.3-0.4,1.4-1.1c0.7-2.7,1.5-5.5,2.2-8.2
			c0.5-1.9-2.4-2.7-2.9-0.8c-0.7,2.7-1.5,5.5-2.2,8.2c0.5-0.4,1-0.7,1.4-1.1c-0.9,0.1-1.8,0.2-2.7,0.4c-1.3,0.2-2,1.5-1.1,2.6
			c1.2,1.4,2.1,3,2.5,4.9c0.4,2,0.7,7.1-3.7,4.4c-1.5-0.9-3.7-4.9-4.3-6.5c-1.2-3.3,2.5-5.1,5-6.8c2.3-1.6,4.8-3,7.2-4.4
			C93.2,119.7,91.7,117.1,90,118z"/>
	</g>
</g>
<g>
	<path class="st3" d="M137.2,119c4.3,1,8.4,2.9,12,5.5c1.3,1,2.7,2.2,2.9,3.8c0.3,1.7-0.7,3.3-1.6,4.8c-1.2,1.8-2.4,3.7-4.1,5
		c-0.8,0.6-1.7,1.1-2.7,1.2c-1,0.1-2-0.2-2.6-1c-0.5-0.6-0.6-1.4-0.7-2.1c-0.3-2.4-0.1-4.9,0.6-7.3c0.1-0.2,0.1-0.4,0-0.5
		c-0.1-0.2-0.4-0.3-0.7-0.3c-0.7-0.1-1.5-0.2-2.2-0.3L137.2,119z"/>
	<g>
		<path d="M136.8,120.5c3.8,1,7.3,2.4,10.6,4.6c3.2,2.2,3.2,5.5,1.2,8.4c-0.6,1-1.3,1.9-2.2,2.7c-1,1.6-2,1.5-3-0.2
			c-2.6-2.3-0.9-3.7-0.9-6.8c0-0.6,0.2-1.1-0.1-1.7c-0.7-1.4-2.9-1.2-4.2-1.4c0.5,0.5,1,1,1.5,1.5c-0.3-2.9-0.7-5.8-1-8.7
			c-0.2-1.9-3.2-1.9-3,0c0.3,2.9,0.7,5.8,1,8.7c0.1,0.9,0.6,1.4,1.5,1.5c1.8,0.2,0.9,0.9,0.7,2.5c-0.2,1.4-0.2,3,0,4.4
			c0.2,1.6,0.7,3.1,2.2,4c3.4,2,6.9-1.1,8.8-3.7c2.6-3.3,5.3-7.6,2.1-11.4c-3.4-4.1-9.6-6.3-14.6-7.6
			C135.7,117.1,134.9,120,136.8,120.5z"/>
	</g>
</g>
<g>
	<g>
		<path d="M202.9,136.8c2.1-4.3,7.9-2.4,11.2-4.5c2.3-1.4,3.2-3.4,6.1-4.3c2.8-0.8,5.7-1.3,8.5-0.3c1.8,0.6,2.6-2.3,0.8-2.9
			c-4.6-1.6-11.9-0.4-15.6,3c-1.4,1.3-1.4,2-3.6,2.5c-1.4,0.3-2.9,0.4-4.3,0.9c-2.5,0.7-4.5,1.7-5.7,4.2
			C199.5,137,202.1,138.5,202.9,136.8L202.9,136.8z"/>
	</g>
</g>
<g>
	<path class="st3" d="M177.6,112.4c-1.1-1.5-2.4-2.9-4.2-3.4c-0.6-0.2-1.3-0.2-1.9-0.3c-0.8-0.1-1.6-0.1-2.2,0.4
		c-0.4,0.3-0.6,0.8-0.7,1.3c-0.5,1.6-0.2,3.5,0.7,4.9c0.5,0.9,1.3,1.6,2.1,2.3c2,1.9,4,3.7,6.1,5.6L177.6,112.4z"/>
	<g>
		<path d="M178.9,111.7c-1.6-2.1-3.4-3.8-6.1-4.3c-2.2-0.4-4.5-0.2-5.5,2c-3,6.2,5.2,11.4,8.9,15c1,0.9,2.5,0.3,2.6-1.1
			c0.1-3.6,0.2-7.2,0.3-10.8c0.1-1.9-2.9-1.9-3,0c-0.1,3.6-0.2,7.2-0.3,10.8c0.9-0.4,1.7-0.7,2.6-1.1c-2.5-2.3-6.1-4.7-7.9-7.6
			c-0.9-1.4-1.3-3.9,0.6-4.4c2.1-0.5,4.1,1.5,5.2,2.9C177.5,114.7,180.1,113.2,178.9,111.7z"/>
	</g>
</g>
<g>
	<path d="M122.7,118.3c2.1,0,4.1,0,6.2,0c0.1,0,0.3,0,0.3,0.1c0.1,0.1,0.1,0.2,0.1,0.3c0,0.6,0,1.1,0,1.7c0,0.3,0,0.6-0.1,0.9
		c-0.1,0.4-0.4,0.6-0.7,0.9c-1.1,0.8-2.7,0.9-3.9,0.3c-1.2-0.6-2-2-1.9-3.4"/>
</g>
<polygon points="250.4,92.3 240.7,125.8 250.9,121.2 255.8,109.2 "/>
</svg>
