<svg id="Livello_1" data-name="Livello 1" xmlns="http://www.w3.org/2000/svg" viewBox="0 0 323.39 207.24"><defs><style>.cls-1{fill:#4c4c4c;}.cls-2{fill:#ff5557;}.cls-3,.cls-5{fill:#fff;}.cls-4{fill:#f5f5f5;stroke:#050500;}.cls-4,.cls-5,.cls-6{stroke-miterlimit:10;}.cls-4,.cls-6{stroke-width:3px;}.cls-5,.cls-6{stroke:#000;}.cls-5{stroke-width:2px;}.cls-6{fill:none;}</style></defs><title>BATTLE2</title><ellipse class="cls-1" cx="204.5" cy="234" rx="163.5" ry="54" transform="matrix(0.99, -0.16, 0.16, 0.99, -77.02, -50.94)"/><path class="cls-2" d="M200.43,197.39c-.08-.42-.22-1.1-.42-2q-.69-2.47-2.23-2.47-2,0-2.54,2.42-.73,3-1.16,12.32l-.08,2.42c0,1.15,0,2,0,2.65q.5,10.31,1.46,13.53a2.4,2.4,0,0,0,2.31,2,2.29,2.29,0,0,0,2.39-1.85,19.19,19.19,0,0,0,.58-3.51H205a29.46,29.46,0,0,1-1,6.16q-1.58,5-6.08,5t-6.2-5.07q-.81-2.53-1.54-13.7-.12-3-.12-4.83,0-2.59.08-4.09.31-10.71,1.5-14.22,1.73-4.83,6.23-4.83t6,5.12a35.08,35.08,0,0,1,.92,5Z" transform="translate(-42.8 -85.97)"/><path class="cls-2" d="M216.28,211.61h-5.43v22h-4v-46h4v18.65h5.43V187.61h4v46h-4Z" transform="translate(-42.8 -85.97)"/><path class="cls-2" d="M232.29,187.61l6.39,46h-4L232.79,221h-4.39l-2,12.61h-4.08l6.54-46Zm-1.69,16.46-1.23,10.65h2.58Z" transform="translate(-42.8 -85.97)"/><path class="cls-2" d="M240.8,187.61h4v40.75h8.85v5.29H240.8Z" transform="translate(-42.8 -85.97)"/><path class="cls-2" d="M255.73,187.61h4v40.75h8.85v5.29H255.73Z" transform="translate(-42.8 -85.97)"/><path class="cls-2" d="M270.66,187.61h11.81V193h-7.85v13.3h4.54v5.35h-4.54V228.3h8.24v5.35h-12.2Z" transform="translate(-42.8 -85.97)"/><path class="cls-2" d="M289.13,206.37v27.29h-4V187.72h4l5.62,26v-26h4v45.93h-4Z" transform="translate(-42.8 -85.97)"/><path class="cls-2" d="M312.1,217.42h-2.58v-5.35H316v11.63a18.58,18.58,0,0,1-.65,5.18q-1.54,5.12-6,5.12-4.7,0-6.23-5.12-.85-2.87-1.54-13.87c-.08-1-.12-2.48-.12-4.32q0-2.13.08-4.38.43-10.53,1.42-13.93,1.73-5.13,6.39-5.12,4.35,0,5.81,5.12A24.49,24.49,0,0,1,316,198h-4.2a15.1,15.1,0,0,0-.5-3c-.44-1.34-1.14-2-2.12-2a2.38,2.38,0,0,0-2.46,2q-.73,2.88-1.23,12.72c-.05,1.61-.08,2.47-.08,2.59,0,1,0,1.86,0,2.47q.54,10.13,1.46,13.47c.51,1.3,1.28,2,2.31,2a2.47,2.47,0,0,0,2.42-2,13.68,13.68,0,0,0,.42-3.69Z" transform="translate(-42.8 -85.97)"/><path class="cls-2" d="M318.88,187.61h11.81V193h-7.85v13.3h4.54v5.35h-4.54V228.3h8.24v5.35h-12.2Z" transform="translate(-42.8 -85.97)"/><path class="cls-3" d="M182,228.22l6.39,44.4h-4l-1.85-12.16h-4.39l-2,12.16h-4.08l6.54-44.4Zm-1.69,15.87-1.23,10.27h2.58Z" transform="translate(-42.8 -85.97)"/><path class="cls-3" d="M199.73,237.65c-.08-.41-.22-1.06-.42-1.95q-.69-2.39-2.23-2.39-2,0-2.54,2.33-.73,2.89-1.16,11.88l-.08,2.33c0,1.11,0,2,0,2.55q.5,9.94,1.46,13a2.38,2.38,0,0,0,2.31,1.89,2.28,2.28,0,0,0,2.39-1.78,17.91,17.91,0,0,0,.58-3.38h4.19a27.5,27.5,0,0,1-1,5.94q-1.58,4.82-6.08,4.83t-6.2-4.89q-.81-2.44-1.54-13.21-.12-2.94-.12-4.66,0-2.5.08-3.94.31-10.33,1.5-13.71,1.73-4.66,6.23-4.66t6,4.94a32.75,32.75,0,0,1,.92,4.83Z" transform="translate(-42.8 -85.97)"/><path class="cls-3" d="M216.05,237.65c-.08-.41-.22-1.06-.42-1.95q-.69-2.39-2.23-2.39-2,0-2.54,2.33-.73,2.89-1.16,11.88l-.08,2.33c0,1.11,0,2,0,2.55q.5,9.94,1.46,13a2.38,2.38,0,0,0,2.31,1.89,2.28,2.28,0,0,0,2.39-1.78,17.91,17.91,0,0,0,.58-3.38h4.19a27.5,27.5,0,0,1-1,5.94Q218,273,213.47,273t-6.2-4.89q-.81-2.44-1.54-13.21-.12-2.94-.12-4.66,0-2.5.08-3.94.31-10.33,1.5-13.71,1.73-4.66,6.23-4.66t6,4.94a32.75,32.75,0,0,1,.92,4.83Z" transform="translate(-42.8 -85.97)"/><path class="cls-3" d="M222.51,228.22h11.82v5.16h-7.85V246.2H231v5.16h-4.54v16.09h8.24v5.16h-12.2Z" transform="translate(-42.8 -85.97)"/><path class="cls-3" d="M237,272.62v-44.4h7a5.78,5.78,0,0,1,3.88,1.5q3,3.11,3,10.66a21.78,21.78,0,0,1-1,6.83,7.42,7.42,0,0,1-2,3.5,5.88,5.88,0,0,1-3.58,1.22H241v20.7Zm4-25.87h2.73q2.93,0,2.93-6.66t-2.93-6.72H241Z" transform="translate(-42.8 -85.97)"/><path class="cls-3" d="M261.61,272.62H257.5V233.38h-4.65v-5.16h13v5.16h-4.23Z" transform="translate(-42.8 -85.97)"/><path class="cls-3" d="M268.16,228.22H280v5.16h-7.85V246.2h4.54v5.16h-4.54v16.09h8.24v5.16h-12.2Z" transform="translate(-42.8 -85.97)"/><path class="cls-3" d="M282.66,272.62v-44.4h6q4.74,0,6.24,4.66a43.89,43.89,0,0,1,1,5.94q.42,3.88.46,7.1.08,2.39.08,4.16,0,1.39-.08,4.55-.35,9.82-1.5,13.43a6.16,6.16,0,0,1-6.31,4.55Zm4-39.25v34.08H288a4.24,4.24,0,0,0,1.83-.28,3.14,3.14,0,0,0,1.06-1.5,26.43,26.43,0,0,0,.88-5q0-.28.39-6.22.11-1.28.11-4.22,0-2.39-.08-3.78a63.27,63.27,0,0,0-1.19-10.77,2.77,2.77,0,0,0-3-2.33Z" transform="translate(-42.8 -85.97)"/><path class="cls-4" d="M181,165.37s37.19,33.35,22.63,50c0,0-15,11.47-29.34-10.91" transform="translate(-42.8 -85.97)"/><path class="cls-4" d="M90.79,104.18s-25.3,68.66-16.26,143.56c0,0,14.46,10.4,32.53,8.32,0,0,5.42-6.24,5.42-18.73l18.07,2.08s1.81,14.56,5.42,25c0,0,19.88,12.48,34.33,0,0,0,0-20.81-5.42-27,0,0,30.72-60.34,18.07-131.08,0,0-7.23,2.08-14.46,10.4,0,0-37.95-18.73-59.63-8.32,0,0,0-12.48-7.23-20.81C101.63,87.54,96.21,85.46,90.79,104.18Z" transform="translate(-42.8 -85.97)"/><path class="cls-4" d="M64.71,158.26s-15.85-22.67-7-30.3c-2.41,1.89,16.49-15,22.09,25.85" transform="translate(-42.8 -85.97)"/><path class="cls-4" d="M61.25,183.68s-2.16,7,1.89,11.31c0,0,7.27,13.74,25.86-4.31,0,0,7.54-4.58-1.89-11.31,0,0,12.12-7,1.08-13.47,0,0,13.47-8.89-5.93-15.62C82.26,150.28,45,147.86,61.25,183.68Z" transform="translate(-42.8 -85.97)"/><path class="cls-5" d="M88.19,165.9s-3.23.54-13.74-2.69" transform="translate(-42.8 -85.97)"/><path class="cls-5" d="M87.11,179.37s-8.08,1.35-10.24-1.62" transform="translate(-42.8 -85.97)"/><path class="cls-6" d="M99.87,231s24.06,11.17,47.64,7.09" transform="translate(-42.8 -85.97)"/><ellipse cx="89.35" cy="71.01" rx="5.77" ry="7.54"/><ellipse cx="125.43" cy="70.57" rx="5.77" ry="7.54"/><path d="M162.53,169.57s-.62,15.14-13.31,14.15c0,0-9.16.07-10.68-14.95" transform="translate(-42.8 -85.97)"/><path class="cls-2" d="M338.35,233.3a8,8,0,0,1,2-5.47A6,6,0,0,1,345,225.6a6.12,6.12,0,0,1,4.74,2.23,8.53,8.53,0,0,1,0,10.93A6.1,6.1,0,0,1,345,241a6,6,0,0,1-4.64-2.24A7.92,7.92,0,0,1,338.35,233.3Zm.21-93.65H352l-1.07,39.61-2.13,37.39h-7l-2.13-37.39Z" transform="translate(-42.8 -85.97)"/></svg>