<svg id="Livello_1" data-name="Livello 1" xmlns="http://www.w3.org/2000/svg" viewBox="0 0 317.29 183.46"><defs><style>.cls-1{fill:#4c4c4c;}.cls-2{fill:#f5f5f5;stroke:#050500;stroke-miterlimit:10;stroke-width:3px;}.cls-3{fill:#ff5557;}</style></defs><title>Schermata 2018-08-31 alle 00.27.19 (1)</title><ellipse class="cls-1" cx="158.65" cy="148.99" rx="158.65" ry="24.5"/><path class="cls-2" d="M207.95,191.52s-17.43-6.63-35.8,0c0,0-18.89,32.66,41.4,25.47" transform="translate(-25.96 -130.79)"/><path class="cls-2" d="M170.23,198.51s16.78,32,14.09,56.82c0,0-12.52,14.39-28.49,1" transform="translate(-25.96 -130.79)"/><path class="cls-2" d="M223.42,132.3s-29.53,66.81-7,147.48h19.43V268.67h14.77v11.11h31.86s38-62.56,2.28-147.48c0,0-6.95-.86-12.39,13.72,0,0-18.65-6.86-32.64,0C239.74,146,239.89,132.3,223.42,132.3Z" transform="translate(-25.96 -130.79)"/><path class="cls-2" d="M155.07,132.3s32.59,66.81,7.72,147.48H141.35V268.67h-16.3v11.11H89.88s-42-62.56-2.52-147.48c0,0,7.67-.86,13.67,13.72,0,0,20.58-6.86,36,0C137.06,146,136.89,132.3,155.07,132.3Z" transform="translate(-25.96 -130.79)"/><path class="cls-2" d="M70.51,209.44s-1.29,20.17,16.4,38.22c0,0,35.56,29.46,71.37-27.09,0,0,7.81-10.68-6.51-18.49,0,0-12-1.3-14.59,9.9,0,0-22.4,6-32.56,15.63a16.67,16.67,0,0,0,.78-18" transform="translate(-25.96 -130.79)"/><path class="cls-2" d="M300.07,200.37s1.61,45.7-25.69,57.89c0,0-55.86,5.91-72.24-31.3,0,0,2.57-12.74,18.62-5.26,0,0,28.64-.37,37.25,9.38,0,0-4.94-18.51,15.81-25" transform="translate(-25.96 -130.79)"/><path d="M129.92,197.48,116.56,191s-7.14,9.52,1.58,13.75C118.15,204.75,127.13,210.51,129.92,197.48Z" transform="translate(-25.96 -130.79)"/><path class="cls-2" d="M118,263s13.23,9.06,30.51,1" transform="translate(-25.96 -130.79)"/><path class="cls-2" d="M226.14,264.76s15.92,9.18,28.19.27" transform="translate(-25.96 -130.79)"/><path class="cls-3" d="M191.81,276.66l-4.7,36.82h-14l-5.34-36.82h9.75q1.7,15.21,2.43,25.74.72-10.64,1.52-18.9l.64-6.85Z" transform="translate(-25.96 -130.79)"/><path class="cls-3" d="M212.94,287.8h-8.58v-2.73a5.53,5.53,0,0,0-.33-2.43,1.2,1.2,0,0,0-1.1-.52,1.39,1.39,0,0,0-1.26.7,4.22,4.22,0,0,0-.43,2.14,6.26,6.26,0,0,0,.48,2.78,7.05,7.05,0,0,0,2.61,2.25q6.17,3.8,7.77,6.23t1.6,7.85a14.21,14.21,0,0,1-.89,5.8,7.05,7.05,0,0,1-3.44,3.13,13.19,13.19,0,0,1-5.93,1.26,12.87,12.87,0,0,1-6.33-1.46,7,7,0,0,1-3.44-3.71,19.64,19.64,0,0,1-.81-6.39v-2.41h8.58v4.48a6.09,6.09,0,0,0,.36,2.66,1.38,1.38,0,0,0,1.28.59,1.49,1.49,0,0,0,1.37-.75,4.41,4.41,0,0,0,.45-2.23q0-3.25-.86-4.25a27.41,27.41,0,0,0-4.32-3.34,42.65,42.65,0,0,1-4.57-3.43,8.07,8.07,0,0,1-1.85-3,13.44,13.44,0,0,1-.74-4.82,13.8,13.8,0,0,1,1-6.19A7.1,7.1,0,0,1,197,277a13,13,0,0,1,5.62-1.1,14.2,14.2,0,0,1,6.13,1.21,6.51,6.51,0,0,1,3.36,3,16.61,16.61,0,0,1,.82,6.22Z" transform="translate(-25.96 -130.79)"/><ellipse cx="96.71" cy="51.44" rx="4.37" ry="5.71"/><ellipse cx="124.06" cy="51.11" rx="4.37" ry="5.71"/><ellipse cx="198.28" cy="47.74" rx="3.7" ry="4.84"/><ellipse cx="221.45" cy="47.46" rx="3.7" ry="4.84"/><path d="M244.92,188.68s-.17,13.06-11.12,12.51c0,0-7.89.28-9.57-12.62" transform="translate(-25.96 -130.79)"/></svg>