<?xml version="1.0" encoding="utf-8"?>
<!-- Generator: Adobe Illustrator 21.0.0, SVG Export Plug-In . SVG Version: 6.00 Build 0)  -->
<svg version="1.1" id="Livello_1" xmlns="http://www.w3.org/2000/svg" xmlns:xlink="http://www.w3.org/1999/xlink" x="0px" y="0px"
	 viewBox="0 0 365.7 204" style="enable-background:new 0 0 365.7 204;" xml:space="preserve">
<style type="text/css">
	.st0{fill:#4C4C4C;}
	.st1{fill:#FFFFFF;stroke:#000000;stroke-width:3;stroke-miterlimit:10;}
	.st2{fill:#249CC6;}
	.st3{fill:#2187AA;}
</style>
<ellipse class="st0" cx="182.1" cy="170.5" rx="179.1" ry="33.8"/>
<path class="st1" d="M129.4,4.5c0,0-33,32-22,99c0,0-16,13-11,49c0,0,83,19,150-6c0,0,5-35-23-55c0,0,4-48-15-60c0,0-3-24-8-26
	c0,0-10,3-16,15c0,0-19-11-38,0C146.4,20.5,141.4,9.5,129.4,4.5z"/>
<path class="st1" d="M219.4,118.5c0,0,8.7,19.5,4.3,34.8"/>
<g>
	<g>
		<path class="st2" d="M190.6,66c3.9,0,3.9-6,0-6C186.8,60,186.8,66,190.6,66L190.6,66z"/>
	</g>
</g>
<g>
	<g>
		<path class="st2" d="M189.4,67.1c3.9,0,3.9-6,0-6C185.6,61.1,185.6,67.1,189.4,67.1L189.4,67.1z"/>
	</g>
</g>
<g>
	<path class="st2" d="M122.2,150.8c-1.5-6.8-5.9-13-12-16.6c-1.4-0.8-3.3-1.5-4.5-0.4c-1.4,1.2-0.6,3.6,0.7,4.8s3.1,2.1,4,3.7
		c-2.3-0.4-4.6-0.7-6.9-1.1c1,3.2,3.7,5.7,6.9,6.5c-5,0-10,0-15,0c-2,0-4.8,0.8-4.6,2.8c2.4,1.3,5.3,1.8,8,1.3
		c-1.9,1.2-3.6,2.7-5,4.5c2.1,1,4.6,1.4,7,1.1c-2.7,3-5.1,6.2-7.3,9.5c2.1,1.3,4.9,1.3,7.1,0.2c-0.3,0.9-0.6,1.9-1,2.8
		c3.1,2,7.1-1.4,10.8-1.2c4,0.3,6.5,4.6,10.3,5.9c2.2,0.7,4.5,0.4,6.8,0.1c11.2-1.5,22.3-3.1,33.5-4.6c2.9-0.4,5.9-0.8,8.7-0.4
		c2.5,0.4,4.8,1.3,7.1,2.1c9.2,2.9,19,3.1,28.6,2.9c11.2-0.2,22.5-0.8,33.3-3.8c10.8-3,21.2-8.5,28.3-17.1c-4.7-1-9.5-1.4-14.3-1.2
		c0.7-2.9,1.9-5.7,3.6-8.3c-6.7-1.1-14.6-1.9-19.3,3c-1.3,1.4-2.4,3.2-4.2,3.9c-1.3,0.5-2.8,0.4-4.2,0.2c-5.2-0.7-10.4-1.9-15.3-3.6
		"/>
	<g>
		<path class="st3" d="M123.7,150.4c-1.1-4.2-2.8-8-5.6-11.4c-2.2-2.7-6.2-6.8-9.9-7.2c-2.4-0.3-4.5,1.1-4.6,3.6
			c-0.2,3.8,3.9,5.4,5.9,8c0.5-0.8,1-1.7,1.5-2.5c-2.3-0.4-4.6-0.7-6.9-1.1c-1-0.2-2.3,0.7-1.8,1.8c1.5,3.8,4,6.3,8,7.6
			c0.1-1,0.3-2,0.4-2.9c-5.3,0-11-0.7-16.2,0.1c-2.3,0.3-4.4,1.3-4.8,3.8c-0.1,0.6,0,1.4,0.7,1.7c2.9,1.3,5.5,1.8,8.8,1.5
			c-0.3-0.9-0.5-1.9-0.8-2.8c-2,1.4-3.7,2.9-5.3,4.7c-0.8,0.9-0.4,2.1,0.7,2.5c2.5,1,4.7,1.4,7.4,1.1c-0.4-0.9-0.7-1.7-1.1-2.6
			c-2.7,3.1-5.2,6.4-7.6,9.8c-0.4,0.6-0.2,1.7,0.5,2.1c2.9,1.3,5.3,1.5,8.2,0.3c-0.6-0.6-1.2-1.2-1.8-1.8c-0.3,0.9-0.6,1.9-1,2.8
			c-0.3,0.8,0.3,1.5,1,1.8c2.7,1.2,4.6,0.3,7.4-0.4c4.8-1.1,6.7,0.6,10.4,3.3c5.5,3.9,12.5,1.7,18.7,0.8c9-1.2,17.9-2.7,26.9-3.7
			c8.4-0.9,16,3.1,24.3,4.1c14.5,1.9,30.5,1.1,44.9-1.5c13.8-2.5,27-8.4,36.2-19.1c0.7-0.8,0.5-2.3-0.7-2.5
			c-4.9-0.9-9.7-1.3-14.7-1.2c0.5,0.6,1,1.3,1.4,1.9c0.8-2.8,1.9-5.4,3.4-7.9c0.5-0.8,0.1-2.1-0.9-2.2c-5.9-0.9-12.8-1.9-18.3,1.4
			c-4.2,2.6-5.1,6.4-11.1,5.5c-4.6-0.7-9.2-1.9-13.6-3.3c-1.8-0.6-2.6,2.3-0.8,2.9c4.4,1.5,9,2.6,13.6,3.3c2.3,0.4,4.8,0.9,7.1-0.1
			c3.5-1.5,4.7-5.3,8.5-6.7c4.3-1.6,9.4-0.8,13.8-0.1c-0.3-0.7-0.6-1.5-0.9-2.2c-1.7,2.8-2.9,5.5-3.7,8.6c-0.2,0.9,0.5,1.9,1.4,1.9
			c4.7-0.1,9.2,0.2,13.9,1.1c-0.2-0.8-0.4-1.7-0.7-2.5c-9.6,11.2-23.4,16.6-37.7,18.8c-8.2,1.3-16.4,1.5-24.7,1.7
			c-7.7,0.1-15.5,0-22.9-1.9c-3.6-0.9-7-2.5-10.6-3.1c-3.1-0.5-6.1-0.1-9.1,0.3c-7.4,1-14.7,2-22.1,3c-4.3,0.6-8.8,1.6-13.1,1.8
			c-4.8,0.2-6.3-1.4-9.9-3.9c-1.9-1.3-3.7-2.3-6.1-2.3c-3.3,0.1-6.3,2.6-9.7,1.2c0.3,0.6,0.7,1.2,1,1.8c0.3-0.9,0.6-1.9,1-2.8
			c0.3-1-0.8-2.3-1.8-1.8c-1.8,1-3.8,1-5.9,0c0.2,0.7,0.4,1.4,0.5,2.1c2.2-3.2,4.6-6.3,7.1-9.2c0.8-0.9,0.3-2.7-1.1-2.6
			c-2.4,0.2-4.4-0.1-6.6-1c0.2,0.8,0.4,1.7,0.7,2.5c1.5-1.7,2.8-2.9,4.7-4.2c1.1-0.8,0.9-3-0.8-2.8c-2.6,0.3-4.8,0-7.3-1.1
			c0.2,0.6,0.5,1.1,0.7,1.7c0.4-3.2,15.6-1.7,18.1-1.7c1.7,0,2-2.4,0.4-2.9c-2.9-1-4.7-2.6-5.9-5.5c-0.6,0.6-1.2,1.2-1.8,1.8
			c2.3,0.4,4.6,0.7,6.9,1.1c1.5,0.3,2.4-1.3,1.5-2.5c-0.4-0.5-4-3.5-4-3.7c0.9-2.2,2-2.7,3.3-1.2c1.1,0.8,2.2,1.7,3.2,2.6
			c3.5,3.4,5.6,7.6,6.8,12.3C121.3,153,124.2,152.3,123.7,150.4L123.7,150.4z"/>
	</g>
</g>
<g>
	<g>
		<path d="M184.5,125.6c-5.5-0.6-12-0.6-15.3,4.7c-1.7,2.7-1.8,6-1.9,9.1c-0.2,4.9-0.2,9.9-0.1,14.9c0.1,2.9,4.6,2.9,4.5,0
			c-0.1-5.5-0.3-11.2,0.2-16.7c0.3-3.8,1.8-6.9,5.8-7.6c2.2-0.4,4.6-0.1,6.8,0.1C187.4,130.4,187.4,125.9,184.5,125.6L184.5,125.6z"
			/>
	</g>
</g>
<g>
	<g>
		<path d="M171.9,141.2c-1.1-9.8-9.4-16.1-19.1-14.7c-2.9,0.4-1.6,4.8,1.2,4.3c6.6-1,12.7,3.7,13.4,10.3
			C167.7,144.1,172.2,144.1,171.9,141.2L171.9,141.2z"/>
	</g>
</g>
<g>
	<path d="M155.7,88.3c3.7,0.6,7.4,1.2,11.1,1.9c1.9,0.3,3.8,0.6,5.8,0.4s3.8-1.2,4.8-2.8c1-1.6,1-3.6,0.9-5.4
		c-0.1-2.4-0.1-4.8-0.2-7.2c-0.1-2.4-0.2-5-1.4-7.2c-0.9-1.8-2.4-3.1-4.1-4.2c-2-1.3-4.2-2.2-6.6-2.4c-2.4-0.1-4.8,0.7-6.5,2.4
		c-1.7,1.8-2.3,4.3-2.8,6.7c-1.1,5.8-1.6,11.8-1.5,17.7"/>
</g>
<g>
	<g>
		<path class="st2" d="M127.4,66.4c0.4,20.8-0.8,41.6-4.1,62.2c4.9,0.7,9.8,1.3,14.7,2c0.9-21.4,0.6-43.4,7-64c-4.8,0-9.6,0-14.5,0
			c7.3,28.1,13.7,57.7,8.1,86.7c4.8,0,9.6,0,14.5,0c-4.3-18.1-6.9-36.5-7.7-55.1c-0.4-8.3-12.5-10.4-14.7-2
			c-4.6,17.2-6.6,35-5.6,52.8c4.9-0.7,9.8-1.3,14.7-2c-1.9-6.8-3.5-13.8-4.4-20.9c-0.5-3.7-2.5-6.9-6.5-7.4
			c-3.4-0.4-7.5,1.7-8.2,5.4c-1.7,8.8-1.7,17.2-0.3,26.1c0.6,4,5.6,6.2,9.2,5.2c4.2-1.2,5.9-5.2,5.2-9.2c-1-6-0.8-12.1,0.3-18.1
			c-4.9-0.7-9.8-1.3-14.7-2c1,8.4,2.6,16.7,4.9,24.9c2.2,7.9,15.2,6.7,14.7-2c-0.9-16.5,0.8-32.8,5.1-48.8c-4.9-0.7-9.8-1.3-14.7-2
			c0.8,19.9,3.6,39.7,8.2,59.1c1.7,7,13,7.3,14.5,0c6.2-31.9-0.1-63.7-8.1-94.7c-1.9-7.4-12.3-6.9-14.5,0c-6.8,21.8-6.6,45.3-7.5,68
			c-0.3,8.3,13.4,10.4,14.7,2c3.5-21.9,5.1-44,4.6-66.2C142.2,56.7,127.2,56.7,127.4,66.4L127.4,66.4z"/>
	</g>
</g>
<g>
	<g>
		<path class="st2" d="M200.7,151.8c0-13.9-0.1-27.8-0.1-41.6c0-6.6,0-13.2,0-19.8c0-3.6,0-7.3,0-10.9c0-1.7,0-3.3,0-5
			c0-0.5,0-1.1,0-1.6c0.6-2.3-0.9-2.7-4.5-1c-0.7-1.8-1.5-3.5-2.2-5.3c2.7,28.3,4.4,56.7,5.1,85.1c4.9-0.7,9.8-1.3,14.7-2
			c-2.1-13.5-4.1-26.9-6.2-40.4c-1.3-8.7-14.4-6.1-14.7,2c-0.7,14.3-0.8,28.7-0.4,43c0.2,9.6,15.2,9.7,15,0
			c-0.4-14.3-0.2-28.7,0.4-43c-4.9,0.7-9.8,1.3-14.7,2c2.1,13.5,4.1,26.9,6.2,40.4c1.3,8.4,14.9,6.3,14.7-2
			c-0.4-17.8-1.2-35.7-2.5-53.5c-0.6-8.6-1.3-17.1-2.1-25.7c-0.4-3.9-0.1-8.1-2.8-11.2c-2.3-2.7-5.6-3.8-9.1-3.6
			c-8.1,0.5-11.6,7.9-12,15.2c-0.4,8.4,0,17,0,25.4c0,17.8,0.1,35.7,0.1,53.5C185.7,161.4,200.7,161.5,200.7,151.8L200.7,151.8z"/>
	</g>
</g>
<g>
	<path class="st2" d="M130.8,61.4c-12.1,28.1-15.1,60-8.5,89.8"/>
	<g>
		<path class="st3" d="M129.5,60.6c-12.2,28.7-15.2,60.4-8.6,90.9c0.4,1.9,3.3,1.1,2.9-0.8c-6.4-29.6-3.5-60.7,8.3-88.6
			C132.9,60.4,130.3,58.8,129.5,60.6L129.5,60.6z"/>
	</g>
</g>
<g>
	<g>
		<path class="st3" d="M143.2,63.3c7,29.3,10,59.4,9.2,89.5c-0.1,1.9,2.9,1.9,3,0c0.9-30.4-2.2-60.7-9.3-90.3
			C145.6,60.6,142.7,61.4,143.2,63.3L143.2,63.3z"/>
	</g>
</g>
<g>
	<path class="st2" d="M212.3,147.8c0.4-28.3,0.8-57-7-84.2"/>
	<g>
		<path class="st3" d="M213.8,147.8c0.4-28.4,0.6-57.1-7.1-84.6c-0.5-1.9-3.4-1.1-2.9,0.8c7.6,27.3,7.4,55.7,6.9,83.9
			C210.8,149.7,213.8,149.7,213.8,147.8L213.8,147.8z"/>
	</g>
</g>
<g>
	<path class="st2" d="M187.9,60.8c-1.6,20.7-2.3,41.4-2,62.1c0.1,10.7,0.5,21.6,4,31.8"/>
	<g>
		<path class="st3" d="M186.4,60.8c-1.2,16.5-1.9,33-2.1,49.5c-0.1,14.9-0.6,30.4,4.1,44.8c0.6,1.8,3.5,1,2.9-0.8
			c-4.9-14.7-4.1-30.7-4-45.9c0.1-15.9,0.9-31.7,2-47.5C189.5,58.9,186.5,58.9,186.4,60.8L186.4,60.8z"/>
	</g>
</g>
<g>
	<g>
		<path d="M204.9,62.2c-5.3-2.1-10.7-3-16.4-3c-1.9,0-1.9,3,0,3c5.4-0.1,10.5,0.9,15.6,2.8C205.9,65.8,206.7,62.9,204.9,62.2
			L204.9,62.2z"/>
	</g>
</g>
<g>
	<g>
		<path d="M127.8,61.4c5.3-0.6,10.5-0.1,15.7,1.3c1.9,0.5,2.7-2.4,0.8-2.9c-5.4-1.5-10.9-2-16.5-1.4
			C125.9,58.6,125.9,61.6,127.8,61.4L127.8,61.4z"/>
	</g>
</g>
<g>
	<g>
		<path d="M125.4,64.2c3.1-0.1,6.1-0.9,9.2-1c3.5-0.2,6.9,0.4,10.2,1.5c3.7,1.2,5.3-4.6,1.6-5.8c-3.3-1.1-6.8-1.7-10.3-1.7
			c-3.6,0-7.1,1-10.7,1.1C121.5,58.3,121.5,64.3,125.4,64.2L125.4,64.2z"/>
	</g>
</g>
<g>
	<g>
		<path d="M209.6,61c-3.7-0.9-6.9-3.1-10.6-4c-3.6-0.9-7.4-0.8-11.1-0.5c-3.8,0.2-3.9,6.3,0,6c3.6-0.2,7.3-0.5,10.9,0.7
			c3.2,1.1,6,2.9,9.3,3.6C211.7,67.7,213.3,61.9,209.6,61L209.6,61z"/>
	</g>
</g>
<path class="st1" d="M223.2,67.5c0,0,2.2,23-1.8,36"/>
</svg>
