<?xml version="1.0" encoding="utf-8"?>
<!-- Generator: Adobe Illustrator 21.0.0, SVG Export Plug-In . SVG Version: 6.00 Build 0)  -->
<svg version="1.1" id="Livello_1" xmlns="http://www.w3.org/2000/svg" xmlns:xlink="http://www.w3.org/1999/xlink" x="0px" y="0px"
	 viewBox="0 0 392 274" style="enable-background:new 0 0 392 274;" xml:space="preserve">
<style type="text/css">
	.st0{fill:#4C4C4C;}
	.st1{fill:#FFFFFF;stroke:#050500;stroke-width:3;stroke-miterlimit:10;}
	.st2{fill:none;stroke:#000000;stroke-width:3;stroke-miterlimit:10;}
	.st3{fill:#FFFFFF;stroke:#000000;stroke-width:3;stroke-miterlimit:10;}
</style>
<ellipse class="st0" cx="196" cy="209.6" rx="196" ry="64.6"/>
<path class="st1" d="M94.5,5.5c0,0-42,82-8,183l107,2c0,0,35-61-14-186c0,0-14,1-18,18c0,0-20-10-45,0
	C116.5,22.5,111.5,4.5,94.5,5.5z"/>
<path class="st1" d="M73.5,83.5c-3.5,22.4,2,61.5,2,61.5c-90-22.5-56-82.5-56-82.5s21-44.5,61-16.2c0,0,0,25.2-16,24.2c0,0,9,7-1,13
	H73.5z"/>
<path class="st1" d="M303.5,168.5c0,0,36-42,0-147c0,0-11-3-17,13c0,0-9-9-34-1c0,0-3-13-12-13c0,0-18,33-16,67c0,0-10,19-6,100
	L303.5,168.5z"/>
<path class="st1" d="M318.5,79.5c0,0,3.8,26.5,1,44c0,0,54-4,42-55c0,0-17.2-39.6-48.1-17.8c0,0-2.9,18.8,13.1,18.8c0,0-6,6,0,13
	C326.5,82.5,325.5,79.5,318.5,79.5z"/>
<ellipse cx="275.5" cy="66" rx="5" ry="6.5"/>
<ellipse cx="305.5" cy="65.5" rx="5" ry="6"/>
<path d="M280.5,75.5l20,1c0,0,0,13-11,12C289.5,88.5,279.5,87.5,280.5,75.5z"/>
<path class="st1" d="M148.3,157.3"/>
<path class="st1" d="M157.5,109.5c0,0-24,71,0,138c0,0,14,5,33,0v-11h21v11c0,0,14,9,37,1c0,0,25-84,0-140c0,0-8,5-8,17
	c0,0-41-9-70-2C170.5,123.5,166.5,112.5,157.5,109.5z"/>
<path class="st2" d="M183.5,230.5c0,0,15,14,35,1"/>
<ellipse cx="179" cy="154.5" rx="4" ry="5.5"/>
<ellipse cx="229" cy="153.5" rx="4" ry="5.5"/>
<path d="M186,164h36c0,0-2,22-16,22C206,186,188,188,186,164z"/>
<g>
	<ellipse cx="92" cy="65" rx="6.5" ry="8.5"/>
	<ellipse cx="126" cy="64" rx="6.5" ry="8.5"/>
	<path d="M102,79h17c0,0,2,16-12,13C107,92,96,90,102,79z"/>
</g>
<path class="st2" d="M162.4,112.2c0,0,5.1-3.7,12.1-3.7"/>
<path class="st2" d="M191.5,85.5c0,0,13.2,19.1,14.1,35.6"/>
<path class="st2" d="M228.5,82.5c0,0-14,25.1-10,38.6"/>
<path class="st2" d="M242.5,97.5c0,0,19-0.7,22.5,22.7"/>
<path class="st1" d="M148.3,157.3c0,0-5.8-3.8-8.8,1.2c0,0,9-9-1-15c0,0,23,1,16-23c0,0-27-21-48,5c0,0-50,63,41.5,87.5
	C148,213,144.1,191,148.3,157.3"/>
<path class="st3" d="M258.4,152.3c0,0,8.1-2.8,10.1,3.2c0,0-5-7,0-12c0,0-19-2-9-19c0,0,25-26,50,7c0,0,15,23-3,66
	c0,0-19.8,25.9-49.9,17.4C256.6,214.9,262.2,159.2,258.4,152.3"/>
</svg>
