<svg id="Livello_1" data-name="Livello 1" xmlns="http://www.w3.org/2000/svg" viewBox="0 0 358.28 272.22"><defs><style>.cls-1{fill:#4c4c4c;}.cls-2{fill:#87867b;}.cls-10,.cls-13,.cls-3{fill:#f5f5f5;}.cls-13,.cls-3{stroke:#050500;}.cls-11,.cls-13,.cls-14,.cls-15,.cls-16,.cls-18,.cls-3,.cls-4,.cls-7,.cls-8,.cls-9{stroke-miterlimit:10;}.cls-3,.cls-8{stroke-width:1.5px;}.cls-4{fill:#ffd402;}.cls-14,.cls-4,.cls-9{stroke:#fcfcfc;}.cls-5{fill:#fff;}.cls-15,.cls-6,.cls-7{fill:#fcb901;}.cls-11,.cls-15,.cls-16,.cls-18,.cls-7{stroke:#fff;}.cls-8{fill:none;stroke:#000;}.cls-9{fill:#c9c7c0;}.cls-11,.cls-14,.cls-15,.cls-16,.cls-9{stroke-width:0.5px;}.cls-11,.cls-12{fill:#7c7971;}.cls-14{fill:#a88a67;}.cls-16,.cls-17{fill:#5b450e;}.cls-18{fill:#9b9a8c;stroke-width:2px;}</style></defs><title>7ok</title><ellipse class="cls-1" cx="179.14" cy="238.41" rx="179.14" ry="33.81"/><polygon class="cls-2" points="33.92 164.09 53.79 153.28 131.59 153.28 131.57 163.49 33.92 164.09"/><polygon class="cls-2" points="132.8 131 139.68 126.06 222.3 126.06 228.55 131.03 132.8 131"/><polygon class="cls-2" points="229.67 182.87 229.67 170.04 306.13 170.04 326.62 182.87 229.67 182.87"/><path class="cls-3" d="M224.4,166.91s-1.72-17.8,7.87-24.34c0,0-.44-12.88,8.28-9.93,0,0,27.95,4.6-17.14,53.41" transform="translate(-17.06 -85.05)"/><path class="cls-3" d="M169.91,194.28s-17.22,0-25.59-15.9c0,0-10.2-14,9.19-29.76,0,0,8.4-4.85,17.5,1.94,0,0,3.78,10-6.71,11.16,0,0,3.73,1.85.44,7.28l8.58-2.56" transform="translate(-17.06 -85.05)"/><path class="cls-3" d="M177.92,132.65s-18,36.87-4.26,81.39h11.83v-6.13h9V214H213.9s23.17-34.53,1.39-81.39c0,0-4.23-.48-7.55,7.57,0,0-11.36-3.79-19.88,0C187.86,140.22,188,132.65,177.92,132.65Z" transform="translate(-17.06 -85.05)"/><path class="cls-4" d="M246.52,89.26l11.55-3.54a3,3,0,0,1,2,.73s14,27.6-9.29,38.1c0,0-3,9.19-10.13,11.56,0,0,4.08,11,10.26,11.75,0,0,3.25-.82,3.89,1.26,0,0,4.36-.64,5.64,1.25L264,161.92s-10.39,10.72-34.29,10.5l-3.53-11.54s1.67-3.14,4.23-3.93c0,0-1.29-1.36,2.48-3.92,0,0,5.61-4,2.13-15.37,0,0-6.87,2.18-14.82-3.75,0,0-22.92,5.84-29-25.59a2.7,2.7,0,0,1,2-2.72l10.9-3.34s-1.51-3.2.06-4.38c0,0,13.49-13.77,39.9-12.22C244,85.67,246.42,85.94,246.52,89.26Z" transform="translate(-17.06 -85.05)"/><path class="cls-5" d="M196.2,109.18l9.14-2.8s2.59,15.24,10.38,23.68C215.71,130.07,200.62,131.77,196.2,109.18Z" transform="translate(-17.06 -85.05)"/><path class="cls-5" d="M248.08,93.29l9.14-2.8c9,21.19-4.47,28.23-4.47,28.23S254.6,108.79,248.08,93.29Z" transform="translate(-17.06 -85.05)"/><path class="cls-6" d="M230.73,156.39s14.1,2.47,23.39-7.52c0,0,.6,1,.46,1.49a27.22,27.22,0,0,1-23.25,7.12S230.89,157.46,230.73,156.39Z" transform="translate(-17.06 -85.05)"/><path class="cls-7" d="M227,163.58a46.18,46.18,0,0,0,34.29-10.5l2.94,9.61s-12.37,11.29-34.29,10.5Z" transform="translate(-17.06 -85.05)"/><ellipse class="cls-6" cx="223.99" cy="93.11" rx="18.57" ry="2.64" transform="translate(-34.51 -15.37) rotate(-17.03)"/><ellipse class="cls-3" cx="225.48" cy="57.3" rx="7.78" ry="9.7"/><path d="M205.63,164.68s-.47,11.46-10.07,10.71c0,0-6.93.05-8.08-11.31" transform="translate(-17.06 -85.05)"/><path class="cls-8" d="M181.64,204.88a15.49,15.49,0,0,0,16.1,1.06" transform="translate(-17.06 -85.05)"/><path class="cls-3" d="M84.68,179.53s-9.6,33.69,0,63.82h21.09l1-2.15,1,2.15h19.1s4.21-31.13-4-65c0,0-3.2,2.74-3.66,5,0,0-17.08-3.2-28.08-.46C91.11,183,89.48,179.76,84.68,179.53Z" transform="translate(-17.06 -85.05)"/><path d="M100.21,203l6.25,1.71s-1.38,6.4-4.09,5.84C102.37,210.53,97.82,210.33,100.21,203Z" transform="translate(-17.06 -85.05)"/><ellipse cx="96.82" cy="111.97" rx="2.18" ry="2.85"/><ellipse cx="84.26" cy="111.97" rx="2.18" ry="2.85"/><path class="cls-9" d="M89.09,193.64l6.65-2.09a1.74,1.74,0,0,1,1.16.41s8.18,15.86-5.19,22c0,0-1.67,5.32-5.79,6.72,0,0,2.4,6.34,6,6.74,0,0,1.87-.49,2.25.71,0,0,2.51-.39,3.26.7l2.09,6.64s-5.95,6.23-19.74,6.21l-2.09-6.64a5.1,5.1,0,0,1,2.42-2.28s-.75-.78,1.41-2.27c0,0,3.22-2.33,1.16-8.88,0,0-4,1.29-8.57-2.1,0,0-13.2,3.47-16.87-14.63a1.56,1.56,0,0,1,1.12-1.58l6.27-2s-.88-1.84,0-2.53c0,0,7.72-8,23-7.23C87.61,191.58,89,191.72,89.09,193.64Z" transform="translate(-17.06 -85.05)"/><path class="cls-5" d="M60.15,205.36l5.26-1.66s1.56,8.78,6.09,13.62C71.5,217.32,62.8,218.38,60.15,205.36Z" transform="translate(-17.06 -85.05)"/><path class="cls-10" d="M90,196l5.26-1.66c5.28,12.19-2.45,16.31-2.45,16.31S93.85,204.87,90,196Z" transform="translate(-17.06 -85.05)"/><path class="cls-5" d="M80.57,232.23s7.79,1.11,13-4.27c0,0,.33.52.25.78a16,16,0,0,1-12.9,4.06S80.65,232.8,80.57,232.23Z" transform="translate(-17.06 -85.05)"/><path class="cls-11" d="M78.26,235.89a24.5,24.5,0,0,0,19.11-6l1.78,5.67s-6.79,6.58-19.11,6Z" transform="translate(-17.06 -85.05)"/><path class="cls-3" d="M79.24,221.73S94,222,95.66,227.84c0,0,2.14,8.87-15.08,3.72C80.58,231.57,77.32,228.95,79.24,221.73Z" transform="translate(-17.06 -85.05)"/><path class="cls-3" d="M102.28,238.89a11.14,11.14,0,0,0,8.39,0" transform="translate(-17.06 -85.05)"/><path class="cls-3" d="M127.36,224s12.15,0,18.07-11.3c0,0,7.21-9.92-6.44-21.07a11.49,11.49,0,0,0-12.34,1.4s-2.68,7.07,4.72,7.9c0,0-2.63,1.31-.32,5.16a7.79,7.79,0,0,0-10.44.51" transform="translate(-17.06 -85.05)"/><ellipse cx="192.61" cy="73.47" rx="2.18" ry="2.85"/><ellipse cx="165.75" cy="73.47" rx="2.18" ry="2.85"/><path class="cls-6" d="M206.89,97.48s11.56-9.88,32.61-10.36" transform="translate(-17.06 -85.05)"/><ellipse class="cls-12" cx="76.41" cy="196.46" rx="10.53" ry="1.5" transform="translate(-71.25 -54.06) rotate(-17.03)"/><path class="cls-12" d="M66.71,198.94s6.56-5.6,18.5-5.88" transform="translate(-17.06 -85.05)"/><path class="cls-13" d="M295,236.2s5.85,4.54,6.69,7.8c0,0,6.52,3.26-2.84,3.68,0,0-.5,3.16-4,.26l-8.46-10.31-1.58-4.71Z" transform="translate(-17.06 -85.05)"/><path class="cls-13" d="M279.27,210.23a32.81,32.81,0,0,1,3.59-5.06s2.63,1.56,2.6,5.65Z" transform="translate(-17.06 -85.05)"/><path class="cls-13" d="M259.77,203.65s-11.14,31.91,0,58.28c0,0,8.75,3.87,20.29,0v-7.77l.33,6.77a17.06,17.06,0,0,0,7.42-.13c3.61-1,6.41-40.67,1.42-49.85,0,0-14-2.79-24.35-.6C264.89,210.35,264.43,207.33,259.77,203.65Z" transform="translate(-17.06 -85.05)"/><path class="cls-13" d="M265.62,235.11s-2.42,9.58,0,16.73c0,0,5.08,4.05,7.5-2.38,0,0,4.84-2.86,0-11" transform="translate(-17.06 -85.05)"/><path d="M280.09,237s.38-5.79,3-5.38c0,0,3,.12,1.06,6Z" transform="translate(-17.06 -85.05)"/><ellipse cx="286.6" cy="227.08" rx="2.64" ry="2.02" transform="translate(1.76 391.04) rotate(-81.31)"/><ellipse cx="277.6" cy="226.02" rx="2.64" ry="2.02" transform="translate(-4.83 381.23) rotate(-81.31)"/><path class="cls-13" d="M275,254.88s7.48.26,9.88-2.36" transform="translate(-17.06 -85.05)"/><path class="cls-14" d="M325.22,242.43h3.22a.8.8,0,0,1,.46.35s1.4,8.23-5.34,9.1c0,0-1.47,2.14-3.48,2.18,0,0,.18,3.17,1.69,3.85,0,0,.89,0,.89.63,0,0,1.16.18,1.34.77v3.26s-3.48,1.94-9.55,0V259.3a2.34,2.34,0,0,1,1.38-.68s-.22-.45.94-.81c0,0,1.74-.59,1.74-3.8a4.62,4.62,0,0,1-3.48-2.14s-6.29-.31-5.39-8.91a.72.72,0,0,1,.71-.55h3s-.13-.95.36-1.13c0,0,4.51-2.48,11.11,0C324.85,241.31,325.45,241.57,325.22,242.43Z" transform="translate(-17.06 -85.05)"/><path class="cls-15" d="M315.82,258.63a7.94,7.94,0,0,0,6.83-.09s.08.31,0,.42a7.76,7.76,0,0,1-6.76,0S315.78,258.92,315.82,258.63Z" transform="translate(-17.06 -85.05)"/><path class="cls-16" d="M314.44,260.07a12.15,12.15,0,0,0,9.55,0v2.71a13.27,13.27,0,0,1-9.55,0Z" transform="translate(-17.06 -85.05)"/><path class="cls-5" d="M311.67,243.59H314s-.49,4.14.73,6.93C314.74,250.52,311.07,249.77,311.67,243.59Z" transform="translate(-17.06 -85.05)"/><path class="cls-5" d="M324.37,243.6h2.35c.58,6.18-3.09,6.93-3.09,6.93S324.78,248.11,324.37,243.6Z" transform="translate(-17.06 -85.05)"/><ellipse class="cls-17" cx="319.4" cy="241.96" rx="0.66" ry="4.62" transform="translate(50.82 468.84) rotate(-88.26)"/><path class="cls-17" d="M315,241.62a13.61,13.61,0,0,1,8.51.17" transform="translate(-17.06 -85.05)"/><polygon class="cls-18" points="32.86 164.09 32.86 230.1 327.77 230.1 327.77 182.87 229.67 182.87 229.67 132 131.64 132 131.57 163.49 32.86 164.09"/><path class="cls-5" d="M202.75,241.13a221.31,221.31,0,0,0-6.44,33.41l-8.08,2.12,4.23-24.88-6.3,1,1.3-9.13Z" transform="translate(-17.06 -85.05)"/><path class="cls-5" d="M90,279.56q1.53-7.2,5.71-9a5.78,5.78,0,0,1,2.37-.52,6.33,6.33,0,0,1,4.35,1.72,6.7,6.7,0,0,1,2.47,5.19,8.38,8.38,0,0,1-2.5,5.61A15.85,15.85,0,0,1,97,286.21a7.68,7.68,0,0,0-3.47,2.43l8.44-.55-.71,6.07L87,294.9q-.06-.71-.06-1.4a11,11,0,0,1,1.3-5.48q1.56-2.82,6.94-5.68,3-1.56,3.5-3.08a4.47,4.47,0,0,0,.26-1.4,1.88,1.88,0,0,0-.37-1.15,1.2,1.2,0,0,0-1-.5q-1.4,0-1.49,2.27Z" transform="translate(-17.06 -85.05)"/><path class="cls-5" d="M298.3,287.77q-1.84.06-4.83,2.58,5.5.85,5.47,4.3,0,3-3.59,6t-6.84,2.72q-3.75-.32-4-5.5l5.42-.76a2,2,0,0,0-.12.61.44.44,0,0,0,.5.5,1.5,1.5,0,0,0,.47-.09,3.54,3.54,0,0,0,1.93-1.23,1,1,0,0,0,.26-.64q0-1.32-2.84-1.32a32.12,32.12,0,0,0-4.13.35l1-4.92q2.66-1.76,5.09-3.43-2.49.2-4.92.53l.35-5.56,11.8-.67Q298.94,283.37,298.3,287.77Z" transform="translate(-17.06 -85.05)"/></svg>