<?xml version="1.0" encoding="utf-8"?>
<!-- Generator: Adobe Illustrator 21.0.0, SVG Export Plug-In . SVG Version: 6.00 Build 0)  -->
<svg version="1.1" id="Livello_1" xmlns="http://www.w3.org/2000/svg" xmlns:xlink="http://www.w3.org/1999/xlink" x="0px" y="0px"
	 viewBox="0 0 634.4 439.5" style="enable-background:new 0 0 634.4 439.5;" xml:space="preserve">
<style type="text/css">
	.st0{fill:#848272;}
	.st1{fill:#A8A796;}
	.st2{fill:#5B5657;}
	.st3{fill:#DBD5D7;}
	.st4{fill:#FF5557;}
	.st5{fill:#FCFCFC;}
	.st6{fill:#F5F5F5;stroke:#050500;stroke-miterlimit:10;}
	.st7{fill:#F5F5F5;stroke:#050500;stroke-width:1.5;stroke-miterlimit:10;}
	.st8{fill:#C91426;}
	.st9{fill:none;stroke:#C91426;stroke-miterlimit:10;}
	.st10{fill:#E0E0D7;}
	.st11{fill:#D3203A;}
	.st12{fill:none;stroke:#D3203A;stroke-miterlimit:10;}
	.st13{fill:#F5F5F5;stroke:#000000;stroke-miterlimit:10;}
	.st14{fill:#FFFFFF;stroke:#050500;stroke-miterlimit:10;}
	.st15{fill:#F5F5F5;}
	.st16{fill:#050500;}
	.st17{fill:#050001;}
	.st18{fill:none;stroke:#000000;stroke-miterlimit:10;}
	.st19{fill:#F9F9F9;stroke:#000000;stroke-miterlimit:10;}
	.st20{fill:#FFFFFF;stroke:#000000;stroke-miterlimit:10;}
	.st21{fill:none;}
	.st22{fill:#F5F5F5;stroke:#050500;stroke-width:0.5;stroke-miterlimit:10;}
	.st23{fill:none;stroke:#000000;stroke-width:0.5;stroke-miterlimit:10;}
	.st24{fill:#FFFFFF;stroke:#050500;stroke-width:0.5;stroke-miterlimit:10;}
</style>
<title>cambio ok</title>
<path class="st0" d="M592.7,219.5c0,0-172.6,24.1-240.1-25.2c0,0-159-101.2-352.6-12.1L8.6,313l601.8-19.8L592.7,219.5z"/>
<path class="st1" d="M33.3,264c0,0,172.6,24.1,240.1-25.2c0,0,159-101.2,352.6-12.1l-8.7,130.8L15.5,337.7L33.3,264z"/>
<polygon class="st2" points="56.2,271.8 468.9,274.1 602.3,303.5 599.7,422 15.5,408.9 "/>
<path class="st3" d="M353.6,133.1L353.6,133.1c2.7,0,4.9,2.2,4.9,4.9v175.6c0,2.7-2.2,4.9-4.9,4.9h0c-2.7,0-4.9-2.2-4.9-4.9V138
	C348.7,135.3,350.9,133.1,353.6,133.1z"/>
<path class="st3" d="M229.2,142.9l120.5,2.8c0.7,0,1.2,0.6,1.2,1.3l0,0c0,0.7-0.6,1.2-1.3,1.2l-120.5-2.8c-0.7,0-1.2-0.6-1.2-1.3
	l0,0C227.9,143.4,228.5,142.9,229.2,142.9z"/>
<path class="st4" d="M349.3,144.8h8c1.3,0,2.3,1,2.3,2.3l0,0c0,1.3-1,2.3-2.3,2.3h-8c-1.3,0-2.3-1-2.3-2.3l0,0
	C347,145.8,348.1,144.8,349.3,144.8z"/>
<path class="st3" d="M230.5,133.1L230.5,133.1c1.7,0,3,1.4,3,3v176.6c0,1.7-1.4,3-3,3h0c-1.7,0-3-1.4-3-3V136.1
	C227.5,134.4,228.9,133.1,230.5,133.1z"/>
<path class="st3" d="M204.5,135.2l22.6,8.7c0.6,0.2,0.9,0.9,0.6,1.4l0,0c-0.2,0.6-0.9,0.9-1.4,0.6l-22.6-8.7
	c-0.6-0.2-0.9-0.9-0.6-1.4l0,0C203.3,135.3,203.9,135,204.5,135.2z"/>
<path class="st3" d="M233,136.5l14.9,7c0.5,0.2,0.7,0.9,0.5,1.4l0,0c-0.2,0.5-0.9,0.7-1.4,0.5l-14.9-7c-0.5-0.2-0.7-0.9-0.5-1.4l0,0
	C231.8,136.5,232.5,136.2,233,136.5z"/>
<path class="st3" d="M257.9,137l12.6,7.3c0.5,0.3,0.7,0.9,0.4,1.4v0c-0.3,0.5-0.9,0.7-1.4,0.4l-12.6-7.3c-0.5-0.3-0.7-0.9-0.4-1.4v0
	C256.7,136.9,257.4,136.8,257.9,137z"/>
<path class="st5" d="M281.1,137.3l8.1,7.1c0.4,0.4,0.5,1,0.1,1.5l0,0c-0.4,0.4-1,0.5-1.5,0.1l-8.1-7.1c-0.4-0.4-0.5-1-0.1-1.5l0,0
	C280,137,280.6,136.9,281.1,137.3z"/>
<path class="st3" d="M304.7,138.1l7.1,7.1c0.4,0.4,0.4,1.1,0,1.5l0,0c-0.4,0.4-1.1,0.4-1.5,0l-7.1-7.1c-0.4-0.4-0.4-1.1,0-1.5l0,0
	C303.6,137.7,304.3,137.7,304.7,138.1z"/>
<path class="st3" d="M327.1,138.8l7.1,7.1c0.4,0.4,0.4,1.1,0,1.5l0,0c-0.4,0.4-1.1,0.4-1.5,0l-7.1-7.1c-0.4-0.4-0.4-1.1,0-1.5l0,0
	C326,138.4,326.7,138.4,327.1,138.8z"/>
<path class="st5" d="M98.5,147.7l43.5,6.9c0.6,0.1,1.1,0.7,1,1.4l0,0c-0.1,0.6-0.7,1.1-1.4,1l-43.5-6.9c-0.6-0.1-1.1-0.7-1-1.4l0,0
	C97.3,148.1,97.9,147.6,98.5,147.7z"/>
<path class="st3" d="M98.5,123.4L98.5,123.4c2.5,0,4.4,2,4.4,4.4v204.9c0,2.5-2,4.4-4.4,4.4l0,0c-2.5,0-4.4-2-4.4-4.4V127.8
	C94.1,125.4,96.1,123.4,98.5,123.4z"/>
<path class="st3" d="M142.8,136.9L142.8,136.9c2.2,0,4,1.8,4,4v170.9c0,2.2-1.8,4-4,4h0c-2.2,0-4-1.8-4-4V140.9
	C138.8,138.7,140.6,136.9,142.8,136.9z"/>
<path class="st3" d="M146,197.6h82.1c0.6,0,1.1,0.5,1.1,1.1l0,0c0,0.6-0.5,1.1-1.1,1.1H146c-0.6,0-1.1-0.5-1.1-1.1l0,0
	C144.9,198.1,145.4,197.6,146,197.6z"/>
<path class="st4" d="M94.9,146.3h7.3c1.4,0,2.6,1.2,2.6,2.6v0c0,1.4-1.2,2.6-2.6,2.6h-7.3c-1.4,0-2.6-1.2-2.6-2.6v0
	C92.3,147.5,93.4,146.3,94.9,146.3z"/>
<path class="st4" d="M138.8,153.3h8.4c1.1,0,2,0.9,2,2l0,0c0,1.1-0.9,2-2,2h-8.4c-1.1,0-2-0.9-2-2l0,0
	C136.7,154.2,137.6,153.3,138.8,153.3z"/>
<path class="st4" d="M138.6,196.7h8.4c1.1,0,2,0.9,2,2l0,0c0,1.1-0.9,2-2,2h-8.4c-1.1,0-2-0.9-2-2l0,0
	C136.6,197.6,137.5,196.7,138.6,196.7z"/>
<path class="st4" d="M226.3,196.7h8.4c1.1,0,2,0.9,2,2l0,0c0,1.1-0.9,2-2,2h-8.4c-1.1,0-2-0.9-2-2l0,0
	C224.3,197.6,225.2,196.7,226.3,196.7z"/>
<path class="st6" d="M168.1,201.2c0,0,3.5,4.6,9.2,1"/>
<path class="st7" d="M286.5,293.3c0,0,14.6,29.9,3.5,66h-9.6v-5h-7.3v5h-15.8c0,0-18.8-28-1.1-66c0,0,3.4-0.4,6.1,6.1
	c0,0,9.2-3.1,16.1,0C278.5,299.5,278.4,293.3,286.5,293.3z"/>
<path class="st7" d="M255.3,329.2c0,0-4.4,8.9,0,21.8c0,0-6.2,4.4-12.6-2.7c0,0-2.5-21.6,6.1-29.1c0.3-0.8,0.5-1.6,0.5-2.5"/>
<path class="st7" d="M293.9,321c0,0,14.9,2,17.5,10.9c0,0-4.8,5.6-9.8,0c0,0-0.8,4-3.3,0c0,0-0.5-4.1-4-4.2
	C294.3,327.7,294,326.8,293.9,321z"/>
<path class="st8" d="M301.5,331.9c0,0,1.5,16.7-5,29.3c0,0,3,2,4,0l1-2c0,0,4.1-9.7,2.2-25.8L301.5,331.9z"/>
<circle class="st9" cx="305.8" cy="337.5" r="1.6"/>
<circle class="st9" cx="303.4" cy="356.1" r="2"/>
<path d="M286.5,317.9c0,0-0.4,9.2-8.1,8.6c0,0-5.6,0-6.5-9.1"/>
<path class="st7" d="M544.8,272.2c0,0-12,24.7-2.8,54.5h7.9v-4.1h6v4.1h13c0,0,15.5-21,0.9-52.3c0,0-2.6-0.3-5,2.9
	c0,0-8.6-2.7-13.3,0C551.4,277.3,548.6,273.2,544.8,272.2z"/>
<path class="st7" d="M570.1,301.9c0,0,3.7,7.3,0,18c0,0,5.1,3.7,10.4-2.2c0,0,1.8-18.7-5.2-24.9"/>
<path class="st7" d="M538.4,296.5c0,0-6.9,14.5-7.2,17.7c0,0,1.7,4.2,7.9,2.6C537.4,310.2,537.2,303.3,538.4,296.5z"/>
<path d="M546.6,293.3h5.6c0,0,0.8,6.3-2.8,6.3C549.3,299.7,545.3,300.3,546.6,293.3z"/>
<path class="st5" d="M472.6,264.4c0,0-17.2,17.6-40,15.4l14.2,14c0,0,37.3,1.8,54.9-20.2L472.6,264.4z"/>
<path class="st10" d="M501,295.8l0.8-22.2c0,0-17.9,20.2-54.9,20.2L501,295.8z"/>
<polygon class="st10" points="480,264.5 472.6,264.5 501.8,273.6 513.1,273.6 "/>
<polygon class="st10" points="513.1,295.8 513.1,273.6 501.8,273.6 501,295.8 "/>
<polygon class="st3" points="446.6,329.8 611.2,432.8 620.3,408.8 452.3,321.7 "/>
<ellipse class="st3" cx="617.2" cy="422" rx="10.7" ry="13.8"/>
<path class="st3" d="M452.2,321.7c0,0-8.2-0.8-5.7,8.1"/>
<polygon class="st3" points="458.8,337.3 458.2,360.9 464.6,360.8 465.3,341.4 "/>
<polygon class="st3" points="456,359.2 458.2,360.9 459,337.6 456.9,336.3 "/>
<polygon class="st3" points="560.8,401.3 559.7,439.5 571.3,439.5 572.4,408.5 "/>
<polygon class="st3" points="553.3,396.6 552.1,439.5 559.7,439.5 560.8,401.3 "/>
<path class="st7" d="M492.7,249.8c0,0,4.6,7.7,3,13.1c0,0-7.5,4-11.4,3.9c0,0-4.6-1.8-5.9-4.9l-1-12.1
	C477.4,249.8,488.4,237.9,492.7,249.8z"/>
<path class="st7" d="M466.9,251c0,0,6.2-6.1,11.7-0.8c1.4,5.1,1.7,10.4,0.9,15.6c0,0-7.3,1.8-12.7,0.7V262c-2.1-0.6-4.1-1.7-5.7-3.2
	L466.9,251z"/>
<path class="st7" d="M460.7,232.1c0,0-2.6,3.7-4.5,15.1c0,0-10.2,7.6-4.7,13.4c0,0,7.7,6.6,16.6-10c0,0,6.5-2.3,10.6,1.4
	c0,0,9.2-9.2,14-2.3c0,0,12-2.3,14.3-9.7c0,0-2.5-17.9-15.5-2.9c0.1-5.4-0.8-10.7-2.7-15.7c0,0-6,1.5-6.6,6.6c0,0-8.3-0.6-12.7,2.9
	c-1-3-3.2-5.5-6.1-6.8C461.4,226.2,460.4,229.2,460.7,232.1z"/>
<path class="st7" d="M467,260c-0.2,2.1-0.2,4.3-0.1,6.4c4.2,0.7,8.5,0.5,12.7-0.7c0.4-4.6,0.1-9.2-0.9-13.7"/>
<ellipse cx="483.4" cy="237.2" rx="1.1" ry="1.3"/>
<ellipse cx="478.9" cy="237.2" rx="1.1" ry="1.3"/>
<path class="st11" d="M465.1,268.1c0,0,17.4,6,37.9-8.2c0.5,0.3,0.7,1,0.4,1.5c-0.1,0.1-0.2,0.3-0.4,0.4
	c-10.8,8.3-24.6,11.4-37.9,8.5C464.8,269.5,464.8,268.8,465.1,268.1z"/>
<circle class="st12" cx="469.4" cy="272" r="0.9"/>
<circle class="st12" cx="499.7" cy="265.4" r="1"/>
<path class="st3" d="M352.8,123.4L352.8,123.4c2.3,0,4.1,1.8,4.1,4.1v206.9c0,2.3-1.8,4.1-4.1,4.1l0,0c-2.3,0-4.1-1.8-4.1-4.1V127.5
	C348.7,125.2,350.6,123.4,352.8,123.4z"/>
<path class="st7" d="M352.2,351.1c0,0-12.4,0-18.5-11.5c0,0-7.3-10.1,6.6-21.5c4.1-2,9-1.5,12.6,1.4c0,0,2.7,7.2-4.8,8
	c0,0,2.7,1.3,0.3,5.2l6.2-1.8"/>
<path class="st7" d="M388,349.3c15.6,4.2,20.6-6.1,20.6-6.1c2.6-6.2,3.2-13.1,1.8-19.6c-2.3-7.9-10.6-8-10.6-8c-8.2,0.1-9,7.2-9,7.2
	c1.1,3.4,4.4,2,4.4,2c-0.5,2-0.6,4-0.2,6c-7.2-7.6-15.8,0.5-15.8,0.5"/>
<path class="st7" d="M358,306.6c0,0-13,26.6-3.1,58.7h8.5v-4.4h6.5v4.4h14c0,0,16.7-24.9,1-58.7c0,0-3-0.3-5.4,5.5
	c0,0-8.2-2.7-14.3,0C365.2,312.1,365.2,306.6,358,306.6z"/>
<path class="st13" d="M359.4,359.4c0,0,7.6,4.8,13.7,0"/>
<ellipse cx="361.2" cy="326.9" rx="1.8" ry="2"/>
<ellipse cx="368.2" cy="326.9" rx="1.8" ry="2"/>
<path class="st7" d="M281.8,104.4c-5.4,14.2-6.5,29.8-3,44.6l9.8,0.3l0.1-3.4l4.6,0.1l-0.1,3.4l10.1,0.3c0,0,8.4-30.6-1.3-44.7
	c0,0-3.1,0.9-3.1,2.9c0,0-5.7-2.5-10.8-0.5C288,107.4,284.8,104.5,281.8,104.4z"/>
<path class="st14" d="M286.2,145.1c0,0,4.9,2.1,9,0.2"/>
<path d="M294.8,124.7l-3.7-0.2c0,0-0.4-4.2,2-4.1C293.1,120.4,295.8,120.1,294.8,124.7z"/>
<path class="st3" d="M207.3,135.5l143.7,3.3c0.8,0,1.5,0.7,1.5,1.5v0c0,0.8-0.7,1.5-1.5,1.5l-143.7-3.3c-0.8,0-1.5-0.7-1.5-1.5l0,0
	C205.8,136.1,206.5,135.5,207.3,135.5z"/>
<path class="st4" d="M349.6,137.8h7.3c1.4,0,2.6,1.2,2.6,2.6v0c0,1.4-1.2,2.6-2.6,2.6h-7.3c-1.4,0-2.6-1.2-2.6-2.6v0
	C347,139,348.2,137.8,349.6,137.8z"/>
<path class="st7" d="M278.2,119.2c0,0-7,6.5-4.5,17.8c0,0,2.5,6,7.6,1.2c0,0,1.3-2.7-0.8-4.3c0,0,6.4-1.6,3.4-9.1"/>
<path class="st7" d="M135,147.9c0,0-6.1-10.8-11-7.2c0,0-4.6,3.7-6.2,7.5"/>
<path class="st7" d="M146.5,139.8c0,0,6.8,17.2-6.7,34.5c-1.6,0-3.2-0.4-4.7-1.2c-0.4,1.1-1,2.2-1.8,3c0,0-9.4-1-13.5-5.1
	c0,0-2.8-15.9,4.7-30.5c1.6,0.5,2.9,1.8,3.3,3.5c0,0,9.3-1.8,14,0C141.7,144,142,142.4,146.5,139.8z"/>
<path class="st7" d="M135.9,170.6c0,0-1.1,3.9-2.7,5.5"/>
<path d="M143.7,156.7l-3.7,0.5c0,0,0,4.2,2.4,3.9C142.5,161.2,145.2,161.2,143.7,156.7z"/>
<polygon class="st15" points="123.7,152.1 116.2,148.7 113.5,150.4 116.3,154.2 118.9,156.4 120.3,157.1 124.8,157.1 121.6,155 "/>
<path class="st7" d="M127.2,154.2c0,0-4.6-9.3-11.4-10.9c0,0-4.9,0.2-5.4,6.7c0,0,0.6,4.5,5.6-0.4"/>
<path class="st16" d="M191,274.3"/>
<path d="M376.2,328.7c0,0-2.6,4.5-6.3,4.5C369.9,333.2,379,336.5,376.2,328.7z"/>
<path class="st6" d="M546.9,321.2c0,0,6.2,2.2,11.5,0"/>
<path class="st14" d="M461.9,259.3c1.4,1.2,3,2.1,4.8,2.7"/>
<path class="st17" d="M473.3,238.6c0.8,1.6,2.4,2.7,4.2,2.9C477.4,241.5,469.7,243.4,473.3,238.6z"/>
<path class="st18" d="M181.4,263.5c0,0-3.6,0.2-5,2.2c0,0,0.4,1.5,3.9,2.9"/>
<path class="st7" d="M180.4,281.1c0,0-5.6,1.5-6.7-0.2c0,0,0.4-3.2,4.6-5C178.4,277.8,179.1,279.7,180.4,281.1z"/>
<path class="st7" d="M176.1,261.9c0,0-5.6-1.6-5.6-3.7c0,0,2-2.5,6.5-1.9C176,258,175.7,260,176.1,261.9z"/>
<path class="st19" d="M121.4,156.9c-3.5,0.3-6.7-2.1-7.4-5.6"/>
<path class="st7" d="M198.3,250.7c0,0,25-6.1,34,3.8c0,0,2.4,1.8,0.1,13.9c0,0-1.1,3.5,2.1,9c-0.7,2.8-3,5-5.9,5.3
	c0,0-5-0.1-8.3-5.6c-1.7-0.1-3.4-0.6-5-1.2l-4.9,14.3c0,0-1.2,5.3-3.8,4.6c0,0-7.7-0.2-2.1-10.8c0.5-1.1,0.8-2.2,1.1-3.4
	c0,0-3.5-3,0.3-7.9c0,0-10,11.7-26.3,9c0,0-8.5-9.9-4-25.5C175.8,256.1,184.2,250.1,198.3,250.7z"/>
<path class="st7" d="M233.3,257.2c0,0,4.8,5.9,4.9,7.7c0,0-0.4,3.6-2.3,5c0,0-2.5,0.6-3.6-0.3C232.2,269.5,233.9,261.3,233.3,257.2z
	"/>
<path class="st7" d="M203.9,249.6c-0.6-1.3-0.5-2.8,0.3-4c-0.8-2.1-1.9-4.1-3.1-6c0,0,1-6,6.9-2.5c0,0,1.4,8.4,8.1,11.7
	C212.1,248.7,208,249,203.9,249.6z"/>
<path class="st20" d="M196.9,270.7c0,0-7.8,1.6-8-2c0,0,0.5-2.5,7.9-1L196.9,270.7z"/>
<path class="st3" d="M203,122L203,122c2.3,0,4.1,1.8,4.1,4.1V333c0,2.3-1.8,4.1-4.1,4.1h0c-2.3,0-4.1-1.8-4.1-4.1V126.1
	C198.9,123.8,200.8,122,203,122z"/>
<path class="st4" d="M199.4,133.2h7.3c1.4,0,2.6,1.2,2.6,2.6v0c0,1.4-1.2,2.6-2.6,2.6h-7.3c-1.4,0-2.6-1.2-2.6-2.6v0
	C196.8,134.4,197.9,133.2,199.4,133.2z"/>
<ellipse class="st7" cx="199" cy="238.8" rx="1.7" ry="3.6"/>
<ellipse class="st7" cx="199" cy="292.2" rx="1.7" ry="3.6"/>
<path class="st15" d="M278.7,118.4c-0.4,1.3-0.9,2.6-1.5,3.8l2-2L278.7,118.4z"/>
<polyline class="st16" points="278.4,119.3 278.3,119.5 278.2,119.2 "/>
<line class="st21" x1="306" y1="120.5" x2="306.2" y2="120.2"/>
<polyline class="st16" points="306.2,120.3 306.3,120.5 306.4,120.2 "/>
<path class="st7" d="M305.8,120.2c0,0,7,6.5,4.5,17.8c0,0-2.5,6-7.6,1.2c0,0-1.3-2.7,0.8-4.3c0,0-6.4-1.6-3.4-9.1"/>
<path class="st15" d="M305.2,119.4c0.4,1.3,0.9,2.6,1.5,3.8l-2-2L305.2,119.4z"/>
<ellipse cx="296" cy="117.2" rx="1.5" ry="2"/>
<ellipse cx="289.2" cy="117.4" rx="1.5" ry="2"/>
<ellipse cx="144.1" cy="153.7" rx="1.2" ry="1.5"/>
<ellipse cx="138.8" cy="154.5" rx="1.2" ry="1.5"/>
<ellipse transform="matrix(4.414246e-02 -0.999 0.999 4.414246e-02 -86.9268 440.5539)" cx="186.8" cy="265.7" rx="1.2" ry="1.5"/>
<ellipse transform="matrix(4.414246e-02 -0.999 0.999 4.414246e-02 -95.0116 448.1928)" cx="186.7" cy="273.7" rx="1.2" ry="1.5"/>
<ellipse cx="284.4" cy="312.7" rx="1.6" ry="2"/>
<ellipse cx="269.9" cy="312.9" rx="1.6" ry="2"/>
<ellipse cx="553" cy="289.2" rx="1.3" ry="1.8"/>
<ellipse cx="545.8" cy="289.4" rx="1.3" ry="1.8"/>
<path class="st13" d="M269.4,352.4c0,0,7.6,4.8,13.7,0"/>
<path class="st7" d="M190.4,177.2c0,0-0.8,8.6-6,10.4V178L190.4,177.2z"/>
<path class="st7" d="M155.7,176.2c0,0,0.8,8.6,6,10.4V177L155.7,176.2z"/>
<path class="st7" d="M163.3,159.2c-4.8,15.6-5.5,32.1-1.8,48h9.3v-3.6h4.4v3.6h9.6c0,0,7.2-33.1-2.4-48c0,0-2.9,1-2.9,3.2
	c0,0-5.5-2.5-10.3-0.2C169.2,162.2,166.2,159.2,163.3,159.2z"/>
<ellipse class="st18" cx="173.3" cy="173.6" rx="2" ry="2.2"/>
<path class="st3" d="M102.7,175.6h97.6c0.6,0,1,0.5,1,1v0c0,0.6-0.5,1-1,1h-97.6c-0.6,0-1-0.5-1-1v0
	C101.6,176.1,102.1,175.6,102.7,175.6z"/>
<ellipse class="st7" cx="189.2" cy="176.2" rx="2.7" ry="1.7"/>
<ellipse class="st7" cx="157.7" cy="176.1" rx="2.7" ry="1.7"/>
<path class="st4" d="M94.9,174.1h7.3c1.4,0,2.6,1.2,2.6,2.6v0c0,1.4-1.2,2.6-2.6,2.6h-7.3c-1.4,0-2.6-1.2-2.6-2.6v0
	C92.3,175.2,93.4,174.1,94.9,174.1z"/>
<path class="st4" d="M199.4,174.1h7.3c1.4,0,2.6,1.2,2.6,2.6v0c0,1.4-1.2,2.6-2.6,2.6h-7.3c-1.4,0-2.6-1.2-2.6-2.6v0
	C196.8,175.2,197.9,174.1,199.4,174.1z"/>
<ellipse cx="176.4" cy="170" rx="1.4" ry="1.8"/>
<ellipse cx="170.3" cy="170.3" rx="1.4" ry="1.8"/>
<path class="st22" d="M270.8,318.1c0,0,1.3-0.7,1.7-1.4"/>
<path class="st23" d="M286,316.9c0,0,0.6,1.7,1.2,2"/>
<path class="st14" d="M168.2,202c0,0,4.9,2.1,9,0.2"/>
<path class="st24" d="M375.7,328.4c0,0,0.4,0.4,1.3,0.3"/>
<path class="st24" d="M472.6,238.4c0,0,0.8,0.3,1.3,0"/>
</svg>
